{
  "source": "C:\\Users\\Peter\\Desktop\\stuff\\MIUN\\quantitative_research\\video_compression\\videos\\UVG\\Bosphorus_1920x1080_120fps_420_8bit_YUV.y4m",
  "output": "C:\\Users\\Peter\\Desktop\\stuff\\MIUN\\quantitative_research\\video_compression\\compressed_videos\\UVG\\av1\\2.5\\Bosphorus_1920x1080_120fps_420_8bit_YUV_av1.mkv",
  "codec": "av1",
  "ok": "[yuv4mpegpipe @ 000001cce3805380] Stream #0: not enough frames to estimate rate; consider increasing probesize\nInput #0, yuv4mpegpipe, from 'C:\\Users\\Peter\\Desktop\\stuff\\MIUN\\quantitative_research\\video_compression\\videos\\UVG\\Bosphorus_1920x1080_120fps_420_8bit_YUV.y4m':\n  Duration: 00:00:05.00, start: 0.000000, bitrate: 2985989 kb/s\n  Stream #0:0: Video: rawvideo (I420 / 0x30323449), yuv420p(progressive), 1920x1080, 120 fps, 120 tbr, 120 tbn\n[out#0/matroska @ 000001cce38090c0] Codec AVOption b:a (set bitrate (in bits/s)) has not been used for any stream. The most likely reason is either wrong type (e.g. a video option with no video streams) or that it is a private option of some decoder which was not actually used for any stream.\nStream mapping:\n  Stream #0:0 -> #0:0 (rawvideo (native) -> av1 (libsvtav1))\nPress [q] to stop, [?] for help\nSvt[info]: -------------------------------------------\nSvt[info]: SVT [version]:\tSVT-AV1 Encoder Lib v3.1.0-19-g6ecfe8ec\nSvt[info]: SVT [build]  :\tGCC 15.2.0\t 64 bit\nSvt[info]: LIB Build date: Aug 17 2025 11:37:13\nSvt[info]: -------------------------------------------\n[libsvtav1 @ 000001cce380c1c0] Specified chroma sample location center is unsupported on the AV1 bit stream level. Usage of a container that allows passing this information - such as Matroska - is recommended.\nSvt[info]: Level of Parallelism: 5\nSvt[info]: Number of PPCS 93\nSvt[info]: [asm level on system : up to avx2]\nSvt[info]: [asm level selected : up to avx2]\nSvt[info]: -------------------------------------------\nSvt[info]: SVT [config]: main profile\ttier (auto)\tlevel (auto)\nSvt[info]: SVT [config]: width / height / fps numerator / fps denominator \t\t: 1920 / 1080 / 120 / 1\nSvt[info]: SVT [config]: bit-depth / color format \t\t\t\t\t: 8 / YUV420\nSvt[info]: SVT [config]: preset / tune / pred struct \t\t\t\t\t: 4 / PSNR / random access\nSvt[info]: SVT [config]: gop size / mini-gop size / key-frame type \t\t\t: 641 / 16 / key frame\nSvt[info]: SVT [config]: BRC mode / target bitrate (kbps)\t\t\t\t: VBR / 2500 \nSvt[info]: SVT [config]: AQ mode / Variance Boost \t\t\t\t\t: 2 / 0\nSvt[info]: SVT [config]: sharpness / luminance-based QP bias \t\t\t\t: 0 / 0\nSvt[info]: SVT [config]: QP scale compress strength \t\t\t\t\t: 0\nSvt[info]: -------------------------------------------\nOutput #0, matroska, to 'C:\\Users\\Peter\\Desktop\\stuff\\MIUN\\quantitative_research\\video_compression\\compressed_videos\\UVG\\av1\\2.5\\Bosphorus_1920x1080_120fps_420_8bit_YUV_av1.mkv':\n  Metadata:\n    encoder         : Lavf62.3.100\n  Stream #0:0: Video: av1 (AV01 / 0x31305641), yuv420p(tv, progressive), 1920x1080, q=2-31, 2500 kb/s, 120 fps, 1k tbn\n    Metadata:\n      encoder         : Lavc62.11.100 libsvtav1\n    Side data:\n      cpb: bitrate max/min/avg: 0/0/2500000 buffer size: 2500000 vbv_delay: N/A\nframe=    0 fps=0.0 q=0.0 size=       0KiB time=N/A bitrate=N/A speed=N/A elapsed=0:00:02.28    \nframe=    0 fps=0.0 q=0.0 size=       0KiB time=N/A bitrate=N/A speed=N/A elapsed=0:00:02.81    \nframe=    0 fps=0.0 q=0.0 size=       0KiB time=N/A bitrate=N/A speed=N/A elapsed=0:00:03.33    \nframe=    0 fps=0.0 q=0.0 size=       0KiB time=N/A bitrate=N/A speed=N/A elapsed=0:00:03.84    \nframe=    0 fps=0.0 q=0.0 size=       0KiB time=N/A bitrate=N/A speed=N/A elapsed=0:00:04.36    \nframe=    0 fps=0.0 q=0.0 size=       0KiB time=N/A bitrate=N/A speed=N/A elapsed=0:00:04.87    \nframe=    0 fps=0.0 q=0.0 size=       0KiB time=N/A bitrate=N/A speed=N/A elapsed=0:00:05.40    \nframe=    0 fps=0.0 q=0.0 size=       0KiB time=N/A bitrate=N/A speed=N/A elapsed=0:00:05.91    \nframe=    0 fps=0.0 q=0.0 size=       0KiB time=N/A bitrate=N/A speed=N/A elapsed=0:00:06.44    \nframe=    0 fps=0.0 q=0.0 size=       0KiB time=N/A bitrate=N/A speed=N/A elapsed=0:00:06.96    \nframe=    0 fps=0.0 q=0.0 size=       0KiB time=N/A bitrate=N/A speed=N/A elapsed=0:00:07.47    \nframe=    0 fps=0.0 q=0.0 size=       0KiB time=N/A bitrate=N/A speed=N/A elapsed=0:00:08.00    \nframe=    0 fps=0.0 q=0.0 size=       0KiB time=N/A bitrate=N/A speed=N/A elapsed=0:00:08.53    \nframe=    0 fps=0.0 q=0.0 size=       0KiB time=N/A bitrate=N/A speed=N/A elapsed=0:00:09.06    \nframe=    0 fps=0.0 q=0.0 size=       0KiB time=N/A bitrate=N/A speed=N/A elapsed=0:00:09.59    \nframe=    0 fps=0.0 q=0.0 size=       0KiB time=N/A bitrate=N/A speed=N/A elapsed=0:00:10.10    \nframe=    0 fps=0.0 q=0.0 size=       0KiB time=N/A bitrate=N/A speed=N/A elapsed=0:00:10.61    \nframe=    0 fps=0.0 q=0.0 size=       0KiB time=N/A bitrate=N/A speed=N/A elapsed=0:00:11.12    \nframe=    0 fps=0.0 q=0.0 size=       0KiB time=N/A bitrate=N/A speed=N/A elapsed=0:00:11.64    \nframe=    0 fps=0.0 q=0.0 size=       0KiB time=N/A bitrate=N/A speed=N/A elapsed=0:00:12.16    \nframe=    0 fps=0.0 q=0.0 size=       0KiB time=N/A bitrate=N/A speed=N/A elapsed=0:00:12.68    \nframe=    0 fps=0.0 q=0.0 size=       0KiB time=N/A bitrate=N/A speed=N/A elapsed=0:00:13.20    \nframe=    0 fps=0.0 q=0.0 size=       0KiB time=N/A bitrate=N/A speed=N/A elapsed=0:00:13.72    \nframe=    0 fps=0.0 q=0.0 size=       0KiB time=N/A bitrate=N/A speed=N/A elapsed=0:00:14.23    \nframe=    0 fps=0.0 q=0.0 size=       0KiB time=N/A bitrate=N/A speed=N/A elapsed=0:00:14.76    \nframe=    0 fps=0.0 q=0.0 size=       0KiB time=N/A bitrate=N/A speed=N/A elapsed=0:00:15.27    \nframe=    0 fps=0.0 q=0.0 size=       0KiB time=N/A bitrate=N/A speed=N/A elapsed=0:00:15.79    \nframe=    0 fps=0.0 q=0.0 size=       0KiB time=N/A bitrate=N/A speed=N/A elapsed=0:00:16.30    \nframe=    0 fps=0.0 q=0.0 size=       0KiB time=N/A bitrate=N/A speed=N/A elapsed=0:00:16.83    \nframe=    0 fps=0.0 q=0.0 size=       0KiB time=N/A bitrate=N/A speed=N/A elapsed=0:00:17.35    \nframe=    0 fps=0.0 q=0.0 size=       0KiB time=N/A bitrate=N/A speed=N/A elapsed=0:00:17.86    \nframe=    1 fps=0.1 q=19.0 size=       1KiB time=00:00:00.00 bitrate=N/A speed=   0x elapsed=0:00:18.38    \nframe=    1 fps=0.1 q=19.0 size=       1KiB time=00:00:00.00 bitrate=N/A speed=   0x elapsed=0:00:18.89    \nframe=    1 fps=0.1 q=19.0 size=       1KiB time=00:00:00.00 bitrate=N/A speed=   0x elapsed=0:00:19.40    \nframe=    1 fps=0.1 q=19.0 size=       1KiB time=00:00:00.00 bitrate=N/A speed=   0x elapsed=0:00:19.92    \nframe=    1 fps=0.0 q=19.0 size=       1KiB time=00:00:00.00 bitrate=N/A speed=   0x elapsed=0:00:20.44    \nframe=    1 fps=0.0 q=19.0 size=       1KiB time=00:00:00.00 bitrate=N/A speed=   0x elapsed=0:00:20.95    \nframe=    1 fps=0.0 q=19.0 size=       1KiB time=00:00:00.00 bitrate=N/A speed=   0x elapsed=0:00:21.48    \nframe=    1 fps=0.0 q=19.0 size=       1KiB time=00:00:00.00 bitrate=N/A speed=   0x elapsed=0:00:22.01    \nframe=    1 fps=0.0 q=19.0 size=       1KiB time=00:00:00.00 bitrate=N/A speed=   0x elapsed=0:00:22.54    \nframe=    1 fps=0.0 q=19.0 size=       1KiB time=00:00:00.00 bitrate=N/A speed=   0x elapsed=0:00:23.05    \nframe=    3 fps=0.1 q=47.0 size=       1KiB time=00:00:00.01 bitrate= 268.8kbits/s speed=0.000707x elapsed=0:00:23.57    \nframe=    5 fps=0.2 q=45.0 size=       1KiB time=00:00:00.03 bitrate= 134.4kbits/s speed=0.00138x elapsed=0:00:24.08    \nframe=    6 fps=0.2 q=46.0 size=       1KiB time=00:00:00.04 bitrate= 107.5kbits/s speed=0.00169x elapsed=0:00:24.60    \nframe=    7 fps=0.3 q=46.0 size=       1KiB time=00:00:00.05 bitrate=  89.6kbits/s speed=0.00199x elapsed=0:00:25.11    \nframe=    7 fps=0.3 q=46.0 size=       1KiB time=00:00:00.05 bitrate=  89.6kbits/s speed=0.00195x elapsed=0:00:25.62    \nframe=   10 fps=0.4 q=45.0 size=       1KiB time=00:00:00.07 bitrate=  59.7kbits/s speed=0.00287x elapsed=0:00:26.14    \nframe=   11 fps=0.4 q=45.0 size=       1KiB time=00:00:00.08 bitrate=  53.8kbits/s speed=0.00313x elapsed=0:00:26.66    \nframe=   12 fps=0.4 q=42.0 size=       1KiB time=00:00:00.09 bitrate=  48.9kbits/s speed=0.00337x elapsed=0:00:27.17    \nframe=   14 fps=0.5 q=42.0 size=       1KiB time=00:00:00.10 bitrate=  41.4kbits/s speed=0.00391x elapsed=0:00:27.68    \nframe=   15 fps=0.5 q=42.0 size=       1KiB time=00:00:00.11 bitrate=  38.4kbits/s speed=0.00414x elapsed=0:00:28.20    \nframe=   16 fps=0.6 q=42.0 size=       1KiB time=00:00:00.12 bitrate=  35.8kbits/s speed=0.00435x elapsed=0:00:28.72    \nframe=   18 fps=0.6 q=42.0 size=       1KiB time=00:00:00.14 bitrate=  31.6kbits/s speed=0.00484x elapsed=0:00:29.24    \nframe=   19 fps=0.6 q=43.0 size=       1KiB time=00:00:00.15 bitrate=  29.9kbits/s speed=0.00504x elapsed=0:00:29.76    \nframe=   19 fps=0.6 q=43.0 size=       1KiB time=00:00:00.15 bitrate=  29.9kbits/s speed=0.00495x elapsed=0:00:30.29    \nframe=   20 fps=0.6 q=41.0 size=       1KiB time=00:00:00.15 bitrate=  28.3kbits/s speed=0.00514x elapsed=0:00:30.81    \nframe=   23 fps=0.7 q=42.0 size=       1KiB time=00:00:00.18 bitrate=  24.4kbits/s speed=0.00585x elapsed=0:00:31.33    \nframe=   23 fps=0.7 q=42.0 size=       1KiB time=00:00:00.18 bitrate=  24.4kbits/s speed=0.00576x elapsed=0:00:31.84    \nframe=   24 fps=0.7 q=40.0 size=       1KiB time=00:00:00.19 bitrate=  23.4kbits/s speed=0.00592x elapsed=0:00:32.36    \nframe=   25 fps=0.8 q=42.0 size=       1KiB time=00:00:00.20 bitrate=  22.4kbits/s speed=0.00608x elapsed=0:00:32.89    \nframe=   25 fps=0.7 q=42.0 size=       1KiB time=00:00:00.20 bitrate=  22.4kbits/s speed=0.00599x elapsed=0:00:33.40    \nframe=   26 fps=0.8 q=38.0 size=       1KiB time=00:00:00.20 bitrate=  21.5kbits/s speed=0.00614x elapsed=0:00:33.91    \nframe=   27 fps=0.8 q=40.0 size=       1KiB time=00:00:00.21 bitrate=  20.7kbits/s speed=0.00629x elapsed=0:00:34.42    \nframe=   27 fps=0.8 q=40.0 size=       1KiB time=00:00:00.21 bitrate=  20.7kbits/s speed=0.0062x elapsed=0:00:34.95    \nframe=   28 fps=0.8 q=38.0 size=       1KiB time=00:00:00.22 bitrate=  19.9kbits/s speed=0.00634x elapsed=0:00:35.48    \nframe=   28 fps=0.8 q=38.0 size=       1KiB time=00:00:00.22 bitrate=  19.9kbits/s speed=0.00625x elapsed=0:00:35.99    \nframe=   30 fps=0.8 q=36.0 size=       1KiB time=00:00:00.24 bitrate=  18.5kbits/s speed=0.00662x elapsed=0:00:36.51    \nframe=   31 fps=0.8 q=38.0 size=       1KiB time=00:00:00.25 bitrate=  17.9kbits/s speed=0.00675x elapsed=0:00:37.04    \nframe=   31 fps=0.8 q=38.0 size=       1KiB time=00:00:00.25 bitrate=  17.9kbits/s speed=0.00666x elapsed=0:00:37.55    \nframe=   32 fps=0.8 q=38.0 size=       1KiB time=00:00:00.25 bitrate=  17.3kbits/s speed=0.00678x elapsed=0:00:38.07    \nframe=   33 fps=0.9 q=29.0 size=       1KiB time=00:00:00.26 bitrate=  16.8kbits/s speed=0.00691x elapsed=0:00:38.60    \nframe=   34 fps=0.9 q=38.0 size=       1KiB time=00:00:00.27 bitrate=  16.3kbits/s speed=0.00703x elapsed=0:00:39.13    \nframe=   35 fps=0.9 q=38.0 size=       1KiB time=00:00:00.28 bitrate=  15.8kbits/s speed=0.00715x elapsed=0:00:39.64    \nframe=   35 fps=0.9 q=38.0 size=       1KiB time=00:00:00.28 bitrate=  15.8kbits/s speed=0.00705x elapsed=0:00:40.16    \nframe=   35 fps=0.9 q=38.0 size=       1KiB time=00:00:00.28 bitrate=  15.8kbits/s speed=0.00696x elapsed=0:00:40.68    \nframe=   36 fps=0.9 q=35.0 size=       1KiB time=00:00:00.29 bitrate=  15.4kbits/s speed=0.00708x elapsed=0:00:41.18    \nframe=   36 fps=0.9 q=35.0 size=       1KiB time=00:00:00.29 bitrate=  15.4kbits/s speed=0.00699x elapsed=0:00:41.71    \nframe=   37 fps=0.9 q=43.0 size=       1KiB time=00:00:00.30 bitrate=  14.9kbits/s speed=0.0071x elapsed=0:00:42.23    \nframe=   37 fps=0.9 q=43.0 size=       1KiB time=00:00:00.30 bitrate=  14.9kbits/s speed=0.00702x elapsed=0:00:42.74    \nframe=   38 fps=0.9 q=32.0 size=       1KiB time=00:00:00.30 bitrate=  14.5kbits/s speed=0.00713x elapsed=0:00:43.26    \nframe=   38 fps=0.9 q=32.0 size=       1KiB time=00:00:00.30 bitrate=  14.5kbits/s speed=0.00704x elapsed=0:00:43.77    \nframe=   38 fps=0.9 q=32.0 size=       1KiB time=00:00:00.30 bitrate=  14.5kbits/s speed=0.00696x elapsed=0:00:44.28    \nframe=   39 fps=0.9 q=34.0 size=       1KiB time=00:00:00.31 bitrate=  14.1kbits/s speed=0.00707x elapsed=0:00:44.80    \nframe=   39 fps=0.9 q=34.0 size=       1KiB time=00:00:00.31 bitrate=  14.1kbits/s speed=0.00699x elapsed=0:00:45.33    \nframe=   40 fps=0.9 q=34.0 size=       1KiB time=00:00:00.32 bitrate=  13.8kbits/s speed=0.00709x elapsed=0:00:45.85    \nframe=   41 fps=0.9 q=41.0 size=       1KiB time=00:00:00.33 bitrate=  13.4kbits/s speed=0.00719x elapsed=0:00:46.37    \nframe=   42 fps=0.9 q=38.0 size=       1KiB time=00:00:00.34 bitrate=  13.1kbits/s speed=0.00729x elapsed=0:00:46.87    \nframe=   42 fps=0.9 q=38.0 size=       1KiB time=00:00:00.34 bitrate=  13.1kbits/s speed=0.00721x elapsed=0:00:47.39    \nframe=   43 fps=0.9 q=46.0 size=       1KiB time=00:00:00.35 bitrate=  12.8kbits/s speed=0.0073x elapsed=0:00:47.91    \nframe=   43 fps=0.9 q=46.0 size=       1KiB time=00:00:00.35 bitrate=  12.8kbits/s speed=0.00723x elapsed=0:00:48.42    \nframe=   45 fps=0.9 q=41.0 size=       1KiB time=00:00:00.36 bitrate=  12.2kbits/s speed=0.00749x elapsed=0:00:48.95    \nframe=   47 fps=1.0 q=39.0 size=       1KiB time=00:00:00.38 bitrate=  11.7kbits/s speed=0.00775x elapsed=0:00:49.46    \nframe=   47 fps=0.9 q=39.0 size=       1KiB time=00:00:00.38 bitrate=  11.7kbits/s speed=0.00767x elapsed=0:00:49.97    \nframe=   48 fps=1.0 q=39.0 size=       1KiB time=00:00:00.39 bitrate=  11.4kbits/s speed=0.00776x elapsed=0:00:50.48    \nframe=   49 fps=1.0 q=27.0 size=       1KiB time=00:00:00.40 bitrate=  11.2kbits/s speed=0.00784x elapsed=0:00:51.01    \nframe=   49 fps=1.0 q=27.0 size=       1KiB time=00:00:00.40 bitrate=  11.2kbits/s speed=0.00776x elapsed=0:00:51.53    \nframe=   50 fps=1.0 q=37.0 size=       1KiB time=00:00:00.40 bitrate=  11.0kbits/s speed=0.00784x elapsed=0:00:52.07    \nframe=   51 fps=1.0 q=37.0 size=       1KiB time=00:00:00.41 bitrate=  10.8kbits/s speed=0.00792x elapsed=0:00:52.58    \nframe=   51 fps=1.0 q=37.0 size=       1KiB time=00:00:00.41 bitrate=  10.8kbits/s speed=0.00785x elapsed=0:00:53.10    \nframe=   51 fps=1.0 q=37.0 size=       1KiB time=00:00:00.41 bitrate=  10.8kbits/s speed=0.00777x elapsed=0:00:53.61    \nframe=   52 fps=1.0 q=32.0 size=       1KiB time=00:00:00.41 bitrate=  10.8kbits/s speed=0.0077x elapsed=0:00:54.13    \nframe=   52 fps=1.0 q=32.0 size=       1KiB time=00:00:00.42 bitrate=  10.5kbits/s speed=0.00778x elapsed=0:00:54.64    \nframe=   52 fps=0.9 q=32.0 size=       1KiB time=00:00:00.42 bitrate=  10.5kbits/s speed=0.0077x elapsed=0:00:55.17    \nframe=   53 fps=1.0 q=41.0 size=       1KiB time=00:00:00.43 bitrate=  10.3kbits/s speed=0.00778x elapsed=0:00:55.68    \nframe=   53 fps=0.9 q=41.0 size=       1KiB time=00:00:00.43 bitrate=  10.3kbits/s speed=0.00771x elapsed=0:00:56.19    \nframe=   54 fps=1.0 q=35.0 size=       1KiB time=00:00:00.44 bitrate=  10.1kbits/s speed=0.00779x elapsed=0:00:56.70    \nframe=   54 fps=0.9 q=35.0 size=       1KiB time=00:00:00.44 bitrate=  10.1kbits/s speed=0.00772x elapsed=0:00:57.22    \nframe=   55 fps=1.0 q=37.0 size=       1KiB time=00:00:00.45 bitrate=  10.0kbits/s speed=0.00779x elapsed=0:00:57.73    \nframe=   55 fps=0.9 q=37.0 size=       1KiB time=00:00:00.45 bitrate=  10.0kbits/s speed=0.00772x elapsed=0:00:58.25    \nframe=   56 fps=1.0 q=35.0 size=       1KiB time=00:00:00.45 bitrate=   9.8kbits/s speed=0.0078x elapsed=0:00:58.77    \nframe=   57 fps=1.0 q=39.0 size=       1KiB time=00:00:00.46 bitrate=   9.6kbits/s speed=0.00787x elapsed=0:00:59.31    \nframe=   57 fps=1.0 q=39.0 size=       1KiB time=00:00:00.46 bitrate=   9.6kbits/s speed=0.0078x elapsed=0:00:59.81    \nframe=   58 fps=1.0 q=34.0 size=       1KiB time=00:00:00.47 bitrate=   9.4kbits/s speed=0.00787x elapsed=0:01:00.34    \nframe=   58 fps=1.0 q=34.0 size=       1KiB time=00:00:00.47 bitrate=   9.4kbits/s speed=0.0078x elapsed=0:01:00.86    \nframe=   59 fps=1.0 q=38.0 size=       1KiB time=00:00:00.48 bitrate=   9.3kbits/s speed=0.00787x elapsed=0:01:01.38    \nframe=   59 fps=1.0 q=38.0 size=       1KiB time=00:00:00.48 bitrate=   9.3kbits/s speed=0.00781x elapsed=0:01:01.89    \nframe=   60 fps=1.0 q=35.0 size=       1KiB time=00:00:00.49 bitrate=   9.1kbits/s speed=0.00788x elapsed=0:01:02.40    \nframe=   62 fps=1.0 q=36.0 size=       1KiB time=00:00:00.50 bitrate=   8.8kbits/s speed=0.00808x elapsed=0:01:02.93    \nframe=   63 fps=1.0 q=38.0 size=       1KiB time=00:00:00.51 bitrate=   8.7kbits/s speed=0.00814x elapsed=0:01:03.44    \nframe=   63 fps=1.0 q=38.0 size=       1KiB time=00:00:00.51 bitrate=   8.7kbits/s speed=0.00808x elapsed=0:01:03.97    \nframe=   64 fps=1.0 q=38.0 size=       1KiB time=00:00:00.52 bitrate=   8.5kbits/s speed=0.00814x elapsed=0:01:04.50    \nframe=   65 fps=1.0 q=26.0 size=       1KiB time=00:00:00.53 bitrate=   8.4kbits/s speed=0.0082x elapsed=0:01:05.00    \nframe=   65 fps=1.0 q=26.0 size=       1KiB time=00:00:00.53 bitrate=   8.4kbits/s speed=0.00814x elapsed=0:01:05.52    \nframe=   66 fps=1.0 q=37.0 size=       1KiB time=00:00:00.54 bitrate=   8.3kbits/s speed=0.0082x elapsed=0:01:06.04    \nframe=   66 fps=1.0 q=37.0 size=       1KiB time=00:00:00.54 bitrate=   8.3kbits/s speed=0.00814x elapsed=0:01:06.57    \nframe=   67 fps=1.0 q=37.0 size=       1KiB time=00:00:00.55 bitrate=   8.1kbits/s speed=0.0082x elapsed=0:01:07.08    \nframe=   68 fps=1.0 q=32.0 size=       1KiB time=00:00:00.55 bitrate=   8.0kbits/s speed=0.00826x elapsed=0:01:07.60    \nframe=   69 fps=1.0 q=40.0 size=       1KiB time=00:00:00.56 bitrate=   7.9kbits/s speed=0.00832x elapsed=0:01:08.11    \nframe=   69 fps=1.0 q=40.0 size=       1KiB time=00:00:00.56 bitrate=   7.9kbits/s speed=0.00826x elapsed=0:01:08.63    \nframe=   70 fps=1.0 q=35.0 size=       1KiB time=00:00:00.57 bitrate=   7.8kbits/s speed=0.00831x elapsed=0:01:09.15    \nframe=   70 fps=1.0 q=35.0 size=       1KiB time=00:00:00.57 bitrate=   7.8kbits/s speed=0.00825x elapsed=0:01:09.66    \nframe=   71 fps=1.0 q=36.0 size=       1KiB time=00:00:00.58 bitrate=   7.7kbits/s speed=0.00831x elapsed=0:01:10.18    \nframe=   71 fps=1.0 q=36.0 size=       1KiB time=00:00:00.58 bitrate=   7.7kbits/s speed=0.00825x elapsed=0:01:10.71    \nframe=   71 fps=1.0 q=36.0 size=       1KiB time=00:00:00.58 bitrate=   7.7kbits/s speed=0.00819x elapsed=0:01:11.24    \nframe=   72 fps=1.0 q=33.0 size=       1KiB time=00:00:00.59 bitrate=   7.6kbits/s speed=0.00825x elapsed=0:01:11.75    \nframe=   72 fps=1.0 q=33.0 size=       1KiB time=00:00:00.59 bitrate=   7.6kbits/s speed=0.00819x elapsed=0:01:12.28    \nframe=   73 fps=1.0 q=38.0 size=       1KiB time=00:00:00.60 bitrate=   7.5kbits/s speed=0.00824x elapsed=0:01:12.79    \nframe=   74 fps=1.0 q=34.0 size=       1KiB time=00:00:00.60 bitrate=   7.4kbits/s speed=0.0083x elapsed=0:01:13.32    \nframe=   75 fps=1.0 q=38.0 size=       1KiB time=00:00:00.60 bitrate=   7.4kbits/s speed=0.00824x elapsed=0:01:13.83    \nframe=   75 fps=1.0 q=38.0 size=       1KiB time=00:00:00.61 bitrate=   7.3kbits/s speed=0.00829x elapsed=0:01:14.34    \nframe=   75 fps=1.0 q=38.0 size=       1KiB time=00:00:00.61 bitrate=   7.3kbits/s speed=0.00824x elapsed=0:01:14.87    \nframe=   76 fps=1.0 q=35.0 size=       1KiB time=00:00:00.62 bitrate=   7.2kbits/s speed=0.00829x elapsed=0:01:15.39    \nframe=   77 fps=1.0 q=40.0 size=       1KiB time=00:00:00.63 bitrate=   7.1kbits/s speed=0.00834x elapsed=0:01:15.92    \nframe=   78 fps=1.0 q=34.0 size=       1KiB time=00:00:00.64 bitrate=   7.0kbits/s speed=0.0084x elapsed=0:01:16.43    \nframe=   79 fps=1.0 q=38.0 size=       1KiB time=00:00:00.65 bitrate=   6.9kbits/s speed=0.00845x elapsed=0:01:16.94    \nframe=   79 fps=1.0 q=38.0 size=       1KiB time=00:00:00.65 bitrate=   6.9kbits/s speed=0.00839x elapsed=0:01:17.45    \nframe=   80 fps=1.0 q=38.0 size=       1KiB time=00:00:00.65 bitrate=   6.8kbits/s speed=0.00844x elapsed=0:01:17.98    \nframe=   80 fps=1.0 q=38.0 size=       1KiB time=00:00:00.65 bitrate=   6.8kbits/s speed=0.00838x elapsed=0:01:18.51    \nframe=   81 fps=1.0 q=25.0 size=       1KiB time=00:00:00.66 bitrate=   6.7kbits/s speed=0.00844x elapsed=0:01:19.02    \nframe=   81 fps=1.0 q=25.0 size=       1KiB time=00:00:00.66 bitrate=   6.7kbits/s speed=0.00838x elapsed=0:01:19.53    \nframe=   82 fps=1.0 q=35.0 size=       1KiB time=00:00:00.67 bitrate=   6.6kbits/s speed=0.00843x elapsed=0:01:20.06    \nframe=   83 fps=1.0 q=35.0 size=       1KiB time=00:00:00.68 bitrate=   6.6kbits/s speed=0.00848x elapsed=0:01:20.56    \nframe=   83 fps=1.0 q=35.0 size=       1KiB time=00:00:00.68 bitrate=   6.6kbits/s speed=0.00843x elapsed=0:01:21.09    \nframe=   84 fps=1.0 q=31.0 size=       1KiB time=00:00:00.69 bitrate=   6.5kbits/s speed=0.00848x elapsed=0:01:21.61    \nframe=   84 fps=1.0 q=31.0 size=       1KiB time=00:00:00.69 bitrate=   6.5kbits/s speed=0.00842x elapsed=0:01:22.13    \nframe=   85 fps=1.0 q=40.0 size=       1KiB time=00:00:00.70 bitrate=   6.4kbits/s speed=0.00847x elapsed=0:01:22.65    \nframe=   86 fps=1.0 q=36.0 size=       1KiB time=00:00:00.70 bitrate=   6.3kbits/s speed=0.00852x elapsed=0:01:23.16    \nframe=   86 fps=1.0 q=36.0 size=       1KiB time=00:00:00.70 bitrate=   6.3kbits/s speed=0.00847x elapsed=0:01:23.67    \nframe=   86 fps=1.0 q=36.0 size=       1KiB time=00:00:00.70 bitrate=   6.3kbits/s speed=0.00841x elapsed=0:01:24.19    \nframe=   87 fps=1.0 q=36.0 size=       1KiB time=00:00:00.71 bitrate=   6.3kbits/s speed=0.00846x elapsed=0:01:24.71    \nframe=   87 fps=1.0 q=36.0 size=       1KiB time=00:00:00.71 bitrate=   6.3kbits/s speed=0.00841x elapsed=0:01:25.25    \nframe=   87 fps=1.0 q=36.0 size=       1KiB time=00:00:00.71 bitrate=   6.3kbits/s speed=0.00836x elapsed=0:01:25.77    \nframe=   88 fps=1.0 q=33.0 size=       1KiB time=00:00:00.72 bitrate=   6.2kbits/s speed=0.0084x elapsed=0:01:26.29    \nframe=   89 fps=1.0 q=36.0 size=       1KiB time=00:00:00.73 bitrate=   6.1kbits/s speed=0.00845x elapsed=0:01:26.80    \nframe=   90 fps=1.0 q=33.0 size=       1KiB time=00:00:00.74 bitrate=   6.0kbits/s speed=0.00849x elapsed=0:01:27.33    \nframe=   90 fps=1.0 q=33.0 size=       1KiB time=00:00:00.74 bitrate=   6.0kbits/s speed=0.00844x elapsed=0:01:27.85    \nframe=   91 fps=1.0 q=37.0 size=       1KiB time=00:00:00.75 bitrate=   6.0kbits/s speed=0.00849x elapsed=0:01:28.37    \nframe=   91 fps=1.0 q=37.0 size=       1KiB time=00:00:00.75 bitrate=   6.0kbits/s speed=0.00844x elapsed=0:01:28.88    \nframe=   91 fps=1.0 q=37.0 size=       1KiB time=00:00:00.75 bitrate=   6.0kbits/s speed=0.00839x elapsed=0:01:29.41    \nframe=   92 fps=1.0 q=33.0 size=       1KiB time=00:00:00.75 bitrate=   5.9kbits/s speed=0.00843x elapsed=0:01:29.94    \nframe=   94 fps=1.0 q=37.0 size=       1KiB time=00:00:00.77 bitrate=   5.8kbits/s speed=0.00857x elapsed=0:01:30.45    \nframe=   95 fps=1.0 q=37.0 size=       1KiB time=00:00:00.78 bitrate=   5.7kbits/s speed=0.00861x elapsed=0:01:30.97    \nframe=   96 fps=1.0 q=36.0 size=       1KiB time=00:00:00.79 bitrate=   5.7kbits/s speed=0.00865x elapsed=0:01:31.49    \nframe=   97 fps=1.1 q=25.0 size=       1KiB time=00:00:00.80 bitrate=   5.6kbits/s speed=0.00869x elapsed=0:01:32.01    \nframe=   98 fps=1.1 q=37.0 size=       1KiB time=00:00:00.80 bitrate=   5.5kbits/s speed=0.00874x elapsed=0:01:32.53    \nframe=   98 fps=1.1 q=37.0 size=       1KiB time=00:00:00.80 bitrate=   5.5kbits/s speed=0.00869x elapsed=0:01:33.05    \nframe=   99 fps=1.1 q=37.0 size=       1KiB time=00:00:00.81 bitrate=   5.5kbits/s speed=0.00873x elapsed=0:01:33.57    \nframe=   99 fps=1.1 q=37.0 size=       1KiB time=00:00:00.81 bitrate=   5.5kbits/s speed=0.00868x elapsed=0:01:34.08    \nframe=   99 fps=1.0 q=37.0 size=       1KiB time=00:00:00.81 bitrate=   5.5kbits/s speed=0.00863x elapsed=0:01:34.60    \nframe=  100 fps=1.1 q=33.0 size=       1KiB time=00:00:00.82 bitrate=   5.4kbits/s speed=0.00867x elapsed=0:01:35.11    \nframe=  100 fps=1.0 q=33.0 size=       1KiB time=00:00:00.82 bitrate=   5.4kbits/s speed=0.00863x elapsed=0:01:35.64    \nframe=  100 fps=1.0 q=33.0 size=       1KiB time=00:00:00.82 bitrate=   5.4kbits/s speed=0.00858x elapsed=0:01:36.17    \nframe=  101 fps=1.0 q=41.0 size=       1KiB time=00:00:00.83 bitrate=   5.4kbits/s speed=0.00862x elapsed=0:01:36.68    \nframe=  101 fps=1.0 q=41.0 size=       1KiB time=00:00:00.83 bitrate=   5.4kbits/s speed=0.00857x elapsed=0:01:37.19    \nframe=  102 fps=1.0 q=34.0 size=       1KiB time=00:00:00.84 bitrate=   5.3kbits/s speed=0.00861x elapsed=0:01:37.70    \nframe=  102 fps=1.0 q=34.0 size=       1KiB time=00:00:00.84 bitrate=   5.3kbits/s speed=0.00857x elapsed=0:01:38.23    \nframe=  103 fps=1.0 q=38.0 size=       1KiB time=00:00:00.85 bitrate=   5.3kbits/s speed=0.00861x elapsed=0:01:38.74    \nframe=  103 fps=1.0 q=38.0 size=       1KiB time=00:00:00.85 bitrate=   5.3kbits/s speed=0.00856x elapsed=0:01:39.25    \nframe=  103 fps=1.0 q=38.0 size=       1KiB time=00:00:00.85 bitrate=   5.3kbits/s speed=0.00852x elapsed=0:01:39.77    \nframe=  104 fps=1.0 q=36.0 size=       1KiB time=00:00:00.85 bitrate=   5.2kbits/s speed=0.00856x elapsed=0:01:40.29    \nframe=  105 fps=1.0 q=37.0 size=       1KiB time=00:00:00.86 bitrate=   5.2kbits/s speed=0.0086x elapsed=0:01:40.81    \nframe=  106 fps=1.0 q=33.0 size=       1KiB time=00:00:00.87 bitrate=   5.1kbits/s speed=0.00863x elapsed=0:01:41.33    \nframe=  106 fps=1.0 q=33.0 size=       1KiB time=00:00:00.87 bitrate=   5.1kbits/s speed=0.00859x elapsed=0:01:41.86    \nframe=  107 fps=1.0 q=37.0 size=       1KiB time=00:00:00.88 bitrate=   5.1kbits/s speed=0.00863x elapsed=0:01:42.37    \nframe=  107 fps=1.0 q=37.0 size=       1KiB time=00:00:00.88 bitrate=   5.1kbits/s speed=0.00858x elapsed=0:01:42.90    \nframe=  108 fps=1.0 q=34.0 size=       1KiB time=00:00:00.89 bitrate=   5.0kbits/s speed=0.00862x elapsed=0:01:43.41    \nframe=  108 fps=1.0 q=34.0 size=       1KiB time=00:00:00.89 bitrate=   5.0kbits/s speed=0.00858x elapsed=0:01:43.92    \nframe=  109 fps=1.0 q=41.0 size=       1KiB time=00:00:00.90 bitrate=   5.0kbits/s speed=0.00862x elapsed=0:01:44.44    \nframe=  111 fps=1.1 q=38.0 size=       1KiB time=00:00:00.91 bitrate=   4.9kbits/s speed=0.00873x elapsed=0:01:44.95    \nframe=  111 fps=1.1 q=38.0 size=       1KiB time=00:00:00.91 bitrate=   4.9kbits/s speed=0.00869x elapsed=0:01:45.48    \nframe=  112 fps=1.1 q=37.0 size=       1KiB time=00:00:00.92 bitrate=   4.8kbits/s speed=0.00873x elapsed=0:01:46.01    \nframe=  113 fps=1.1 q=25.0 size=       1KiB time=00:00:00.93 bitrate=   4.8kbits/s speed=0.00876x elapsed=0:01:46.52    \nframe=  113 fps=1.1 q=25.0 size=       1KiB time=00:00:00.93 bitrate=   4.8kbits/s speed=0.00872x elapsed=0:01:47.05    \nframe=  114 fps=1.1 q=37.0 size=       1KiB time=00:00:00.94 bitrate=   4.8kbits/s speed=0.00875x elapsed=0:01:47.58    \nframe=  115 fps=1.1 q=37.0 size=       1KiB time=00:00:00.95 bitrate=   4.7kbits/s speed=0.00879x elapsed=0:01:48.11    \nframe=  115 fps=1.1 q=37.0 size=       1KiB time=00:00:00.95 bitrate=   4.7kbits/s speed=0.00875x elapsed=0:01:48.62    \nframe=  116 fps=1.1 q=33.0 size=       1KiB time=00:00:00.95 bitrate=   4.7kbits/s speed=0.00878x elapsed=0:01:49.14    \nframe=  117 fps=1.1 q=41.0 size=       1KiB time=00:00:00.96 bitrate=   4.6kbits/s speed=0.00881x elapsed=0:01:49.67    \nframe=  118 fps=1.1 q=33.0 size=       1KiB time=00:00:00.97 bitrate=   4.6kbits/s speed=0.00885x elapsed=0:01:50.17    \nframe=  118 fps=1.1 q=33.0 size=       1KiB time=00:00:00.97 bitrate=   4.6kbits/s speed=0.00881x elapsed=0:01:50.70    \nframe=  118 fps=1.1 q=33.0 size=       1KiB time=00:00:00.97 bitrate=   4.6kbits/s speed=0.00877x elapsed=0:01:51.20    \nframe=  119 fps=1.1 q=36.0 size=       1KiB time=00:00:00.98 bitrate=   4.6kbits/s speed=0.0088x elapsed=0:01:51.73    \nframe=  120 fps=1.1 q=36.0 size=       1KiB time=00:00:00.99 bitrate=   4.5kbits/s speed=0.00883x elapsed=0:01:52.26    \nframe=  120 fps=1.1 q=36.0 size=       1KiB time=00:00:00.99 bitrate=   4.5kbits/s speed=0.00879x elapsed=0:01:52.76    \nframe=  121 fps=1.1 q=37.0 size=       1KiB time=00:00:01.00 bitrate=   4.5kbits/s speed=0.00883x elapsed=0:01:53.28    \nframe=  121 fps=1.1 q=37.0 size=       1KiB time=00:00:01.00 bitrate=   4.5kbits/s speed=0.00879x elapsed=0:01:53.81    \nframe=  123 fps=1.1 q=38.0 size=       1KiB time=00:00:01.01 bitrate=   4.4kbits/s speed=0.00889x elapsed=0:01:54.33    \nframe=  123 fps=1.1 q=38.0 size=       1KiB time=00:00:01.01 bitrate=   4.4kbits/s speed=0.00885x elapsed=0:01:54.85    \nframe=  123 fps=1.1 q=38.0 size=       1KiB time=00:00:01.01 bitrate=   4.4kbits/s speed=0.00881x elapsed=0:01:55.38    \nframe=  124 fps=1.1 q=35.0 size=       1KiB time=00:00:01.02 bitrate=   4.4kbits/s speed=0.00884x elapsed=0:01:55.91    \nframe=  125 fps=1.1 q=41.0 size=       1KiB time=00:00:01.03 bitrate=   4.3kbits/s speed=0.00888x elapsed=0:01:56.42    \nframe=  126 fps=1.1 q=34.0 size=       1KiB time=00:00:01.04 bitrate=   4.3kbits/s speed=0.00891x elapsed=0:01:56.94    \nframe=  127 fps=1.1 q=37.0 size=       1KiB time=00:00:01.05 bitrate=   4.3kbits/s speed=0.00894x elapsed=0:01:57.45    \nframe=  127 fps=1.1 q=37.0 size=       1KiB time=00:00:01.05 bitrate=   4.3kbits/s speed=0.0089x elapsed=0:01:57.97    \nframe=  128 fps=1.1 q=37.0 size=       1KiB time=00:00:01.05 bitrate=   4.2kbits/s speed=0.00893x elapsed=0:01:58.49    \nframe=  129 fps=1.1 q=26.0 size=       1KiB time=00:00:01.06 bitrate=   4.2kbits/s speed=0.00896x elapsed=0:01:59.00    \nframe=  130 fps=1.1 q=37.0 size=       1KiB time=00:00:01.07 bitrate=   4.2kbits/s speed=0.00899x elapsed=0:01:59.52    \nframe=  131 fps=1.1 q=37.0 size=       1KiB time=00:00:01.08 bitrate=   4.1kbits/s speed=0.00902x elapsed=0:02:00.04    \nframe=  131 fps=1.1 q=37.0 size=       1KiB time=00:00:01.08 bitrate=   4.1kbits/s speed=0.00898x elapsed=0:02:00.57    \nframe=  131 fps=1.1 q=37.0 size=       1KiB time=00:00:01.08 bitrate=   4.1kbits/s speed=0.00895x elapsed=0:02:01.09    \nframe=  132 fps=1.1 q=34.0 size=       1KiB time=00:00:01.09 bitrate=   4.1kbits/s speed=0.00898x elapsed=0:02:01.60    \nframe=  132 fps=1.1 q=34.0 size=       1KiB time=00:00:01.09 bitrate=   4.1kbits/s speed=0.00894x elapsed=0:02:02.13    \nframe=  133 fps=1.1 q=40.0 size=       1KiB time=00:00:01.10 bitrate=   4.1kbits/s speed=0.00897x elapsed=0:02:02.65    \nframe=  133 fps=1.1 q=40.0 size=       1KiB time=00:00:01.10 bitrate=   4.1kbits/s speed=0.00893x elapsed=0:02:03.20    \nframe=  133 fps=1.1 q=40.0 size=       1KiB time=00:00:01.10 bitrate=   4.1kbits/s speed=0.00889x elapsed=0:02:03.72    \nframe=  134 fps=1.1 q=34.0 size=       1KiB time=00:00:01.10 bitrate=   4.0kbits/s speed=0.00892x elapsed=0:02:04.23    \nframe=  134 fps=1.1 q=34.0 size=       1KiB time=00:00:01.10 bitrate=   4.0kbits/s speed=0.00888x elapsed=0:02:04.75    \nframe=  135 fps=1.1 q=36.0 size=       1KiB time=00:00:01.11 bitrate=   4.0kbits/s speed=0.00891x elapsed=0:02:05.27    \nframe=  135 fps=1.1 q=36.0 size=       1KiB time=00:00:01.11 bitrate=   4.0kbits/s speed=0.00888x elapsed=0:02:05.78    \nframe=  136 fps=1.1 q=34.0 size=       1KiB time=00:00:01.12 bitrate=   4.0kbits/s speed=0.00891x elapsed=0:02:06.31    \nframe=  136 fps=1.1 q=34.0 size=       1KiB time=00:00:01.12 bitrate=   4.0kbits/s speed=0.00887x elapsed=0:02:06.84    \nframe=  138 fps=1.1 q=35.0 size=       1KiB time=00:00:01.14 bitrate=   3.9kbits/s speed=0.00896x elapsed=0:02:07.36    \nframe=  138 fps=1.1 q=35.0 size=       1KiB time=00:00:01.14 bitrate=   3.9kbits/s speed=0.00893x elapsed=0:02:07.88    \nframe=  139 fps=1.1 q=38.0 size=       1KiB time=00:00:01.15 bitrate=   3.9kbits/s speed=0.00896x elapsed=0:02:08.40    \nframe=  139 fps=1.1 q=38.0 size=       1KiB time=00:00:01.15 bitrate=   3.9kbits/s speed=0.00892x elapsed=0:02:08.93    \nframe=  140 fps=1.1 q=35.0 size=       1KiB time=00:00:01.15 bitrate=   3.9kbits/s speed=0.00895x elapsed=0:02:09.44    \nframe=  140 fps=1.1 q=35.0 size=       1KiB time=00:00:01.15 bitrate=   3.9kbits/s speed=0.00891x elapsed=0:02:09.96    \nframe=  143 fps=1.1 q=38.0 size=       1KiB time=00:00:01.18 bitrate=   3.8kbits/s speed=0.00907x elapsed=0:02:10.49    \nframe=  143 fps=1.1 q=38.0 size=       1KiB time=00:00:01.18 bitrate=   3.8kbits/s speed=0.00903x elapsed=0:02:11.00    \nframe=  143 fps=1.1 q=38.0 size=       1KiB time=00:00:01.18 bitrate=   3.8kbits/s speed=0.009x elapsed=0:02:11.53    \nframe=  144 fps=1.1 q=37.0 size=       1KiB time=00:00:01.19 bitrate=   3.8kbits/s speed=0.00902x elapsed=0:02:12.06    \nframe=  145 fps=1.1 q=26.0 size=       1KiB time=00:00:01.20 bitrate=   3.7kbits/s speed=0.00905x elapsed=0:02:12.59    \nframe=  146 fps=1.1 q=37.0 size=       1KiB time=00:00:01.20 bitrate=   3.7kbits/s speed=0.00908x elapsed=0:02:13.10    \nframe=  147 fps=1.1 q=37.0 size=       1KiB time=00:00:01.21 bitrate=   3.7kbits/s speed=0.00911x elapsed=0:02:13.61    \nframe=  147 fps=1.1 q=37.0 size=       1KiB time=00:00:01.21 bitrate=   3.7kbits/s speed=0.00907x elapsed=0:02:14.12    \nframe=  148 fps=1.1 q=34.0 size=       1KiB time=00:00:01.22 bitrate=   3.7kbits/s speed=0.0091x elapsed=0:02:14.64    \nframe=  148 fps=1.1 q=34.0 size=       1KiB time=00:00:01.22 bitrate=   3.7kbits/s speed=0.00906x elapsed=0:02:15.17    \nframe=  149 fps=1.1 q=41.0 size=       1KiB time=00:00:01.23 bitrate=   3.6kbits/s speed=0.00909x elapsed=0:02:15.69    \nframe=  149 fps=1.1 q=41.0 size=       1KiB time=00:00:01.23 bitrate=   3.6kbits/s speed=0.00905x elapsed=0:02:16.21    \nframe=  150 fps=1.1 q=34.0 size=       1KiB time=00:00:01.24 bitrate=   3.6kbits/s speed=0.00908x elapsed=0:02:16.74    \nframe=  150 fps=1.1 q=34.0 size=       1KiB time=00:00:01.24 bitrate=   3.6kbits/s speed=0.00905x elapsed=0:02:17.26    \nframe=  151 fps=1.1 q=37.0 size=       1KiB time=00:00:01.25 bitrate=   3.6kbits/s speed=0.00907x elapsed=0:02:17.78    \nframe=  152 fps=1.1 q=35.0 size=       1KiB time=00:00:01.25 bitrate=   3.6kbits/s speed=0.0091x elapsed=0:02:18.31    \nframe=  153 fps=1.1 q=37.0 size=       1KiB time=00:00:01.26 bitrate=   3.5kbits/s speed=0.00912x elapsed=0:02:18.83    \nframe=  154 fps=1.1 q=35.0 size=       1KiB time=00:00:01.27 bitrate=   3.5kbits/s speed=0.00915x elapsed=0:02:19.35    \nframe=  155 fps=1.1 q=37.0 size=       1KiB time=00:00:01.28 bitrate=   3.5kbits/s speed=0.00917x elapsed=0:02:19.89    \nframe=  155 fps=1.1 q=37.0 size=       1KiB time=00:00:01.28 bitrate=   3.5kbits/s speed=0.00914x elapsed=0:02:20.41    \nframe=  156 fps=1.1 q=35.0 size=       1KiB time=00:00:01.29 bitrate=   3.5kbits/s speed=0.00917x elapsed=0:02:20.92    \nframe=  158 fps=1.1 q=36.0 size=       1KiB time=00:00:01.30 bitrate=   3.4kbits/s speed=0.00925x elapsed=0:02:21.44    \nframe=  159 fps=1.1 q=38.0 size=       1KiB time=00:00:01.31 bitrate=   3.4kbits/s speed=0.00928x elapsed=0:02:21.95    \nframe=  161 fps=1.1 q=27.0 size=       1KiB time=00:00:01.33 bitrate=   3.4kbits/s speed=0.00936x elapsed=0:02:22.47    \nframe=  162 fps=1.1 q=37.0 size=       1KiB time=00:00:01.34 bitrate=   3.3kbits/s speed=0.00938x elapsed=0:02:23.00    \nframe=  163 fps=1.1 q=38.0 size=       1KiB time=00:00:01.35 bitrate=   3.3kbits/s speed=0.0094x elapsed=0:02:23.56    \nframe=  163 fps=1.1 q=38.0 size=       1KiB time=00:00:01.35 bitrate=   3.3kbits/s speed=0.00937x elapsed=0:02:24.13    \nframe=  164 fps=1.1 q=36.0 size=       1KiB time=00:00:01.35 bitrate=   3.3kbits/s speed=0.00939x elapsed=0:02:24.71    \nframe=  164 fps=1.1 q=36.0 size=       1KiB time=00:00:01.35 bitrate=   3.3kbits/s speed=0.00935x elapsed=0:02:25.29    \nframe=  164 fps=1.1 q=36.0 size=       1KiB time=00:00:01.35 bitrate=   3.3kbits/s speed=0.00931x elapsed=0:02:25.85    \nframe=  165 fps=1.1 q=42.0 size=       1KiB time=00:00:01.36 bitrate=   3.3kbits/s speed=0.00933x elapsed=0:02:26.41    \nframe=  166 fps=1.1 q=35.0 size=       1KiB time=00:00:01.36 bitrate=   3.3kbits/s speed=0.0093x elapsed=0:02:26.97    \nframe=  166 fps=1.1 q=35.0 size=       1KiB time=00:00:01.37 bitrate=   3.3kbits/s speed=0.00932x elapsed=0:02:27.54    \nframe=  166 fps=1.1 q=35.0 size=       1KiB time=00:00:01.37 bitrate=   3.3kbits/s speed=0.00928x elapsed=0:02:28.10    \nframe=  167 fps=1.1 q=37.0 size=       1KiB time=00:00:01.38 bitrate=   3.2kbits/s speed=0.0093x elapsed=0:02:28.67    \nframe=  167 fps=1.1 q=37.0 size=       1KiB time=00:00:01.38 bitrate=   3.2kbits/s speed=0.00927x elapsed=0:02:29.26    \nframe=  168 fps=1.1 q=35.0 size=       1KiB time=00:00:01.39 bitrate=   3.2kbits/s speed=0.00929x elapsed=0:02:29.85    \nframe=  168 fps=1.1 q=35.0 size=       1KiB time=00:00:01.39 bitrate=   3.2kbits/s speed=0.00925x elapsed=0:02:30.40    \nframe=  170 fps=1.1 q=36.0 size=       1KiB time=00:00:01.40 bitrate=   3.2kbits/s speed=0.00933x elapsed=0:02:30.95    \nframe=  171 fps=1.1 q=38.0 size=       1KiB time=00:00:01.41 bitrate=   3.2kbits/s speed=0.00935x elapsed=0:02:31.52    \nframe=  171 fps=1.1 q=38.0 size=       1KiB time=00:00:01.41 bitrate=   3.2kbits/s speed=0.00931x elapsed=0:02:32.08    \nframe=  172 fps=1.1 q=35.0 size=       1KiB time=00:00:01.42 bitrate=   3.1kbits/s speed=0.00933x elapsed=0:02:32.65    \nframe=  174 fps=1.1 q=36.0 size=       1KiB time=00:00:01.44 bitrate=   3.1kbits/s speed=0.00941x elapsed=0:02:33.23    \nframe=  175 fps=1.1 q=38.0 size=       1KiB time=00:00:01.45 bitrate=   3.1kbits/s speed=0.00943x elapsed=0:02:33.79    \nframe=  177 fps=1.1 q=27.0 size=       1KiB time=00:00:01.45 bitrate=   3.1kbits/s speed=0.00945x elapsed=0:02:34.35    \nframe=  178 fps=1.1 q=37.0 size=       1KiB time=00:00:01.47 bitrate=   3.0kbits/s speed=0.00952x elapsed=0:02:34.91    \nframe=  179 fps=1.2 q=37.0 size=       1KiB time=00:00:01.48 bitrate=   3.0kbits/s speed=0.00954x elapsed=0:02:35.51    \nframe=  179 fps=1.1 q=37.0 size=       1KiB time=00:00:01.48 bitrate=   3.0kbits/s speed=0.0095x elapsed=0:02:36.10    \nframe=  179 fps=1.1 q=37.0 size=       1KiB time=00:00:01.48 bitrate=   3.0kbits/s speed=0.00947x elapsed=0:02:36.70    \nframe=  180 fps=1.1 q=35.0 size=       1KiB time=00:00:01.49 bitrate=   3.0kbits/s speed=0.00948x elapsed=0:02:37.29    \nframe=  180 fps=1.1 q=35.0 size=       1KiB time=00:00:01.49 bitrate=   3.0kbits/s speed=0.00945x elapsed=0:02:37.89    \nframe=  181 fps=1.1 q=40.0 size=       1KiB time=00:00:01.50 bitrate=   3.0kbits/s speed=0.00947x elapsed=0:02:38.45    \nframe=  181 fps=1.1 q=40.0 size=       1KiB time=00:00:01.50 bitrate=   3.0kbits/s speed=0.00943x elapsed=0:02:39.05    \nframe=  182 fps=1.1 q=34.0 size=       1KiB time=00:00:01.50 bitrate=   3.0kbits/s speed=0.00945x elapsed=0:02:39.62    \nframe=  182 fps=1.1 q=34.0 size=       1KiB time=00:00:01.50 bitrate=   3.0kbits/s speed=0.00942x elapsed=0:02:40.19    \nframe=  182 fps=1.1 q=34.0 size=       1KiB time=00:00:01.50 bitrate=   3.0kbits/s speed=0.00938x elapsed=0:02:40.77    \nframe=  183 fps=1.1 q=35.0 size=       1KiB time=00:00:01.50 bitrate=   3.0kbits/s speed=0.00935x elapsed=0:02:41.37    \nframe=  183 fps=1.1 q=35.0 size=       1KiB time=00:00:01.51 bitrate=   3.0kbits/s speed=0.00936x elapsed=0:02:41.96    \nframe=  184 fps=1.1 q=34.0 size=       1KiB time=00:00:01.51 bitrate=   3.0kbits/s speed=0.00933x elapsed=0:02:42.54    \nframe=  185 fps=1.1 q=37.0 size=       1KiB time=00:00:01.53 bitrate=   2.9kbits/s speed=0.0094x elapsed=0:02:43.11    \nframe=  186 fps=1.1 q=36.0 size=       1KiB time=00:00:01.54 bitrate=   2.9kbits/s speed=0.00942x elapsed=0:02:43.69    \nframe=  186 fps=1.1 q=36.0 size=       1KiB time=00:00:01.54 bitrate=   2.9kbits/s speed=0.00938x elapsed=0:02:44.28    \nframe=  187 fps=1.1 q=38.0 size=       1KiB time=00:00:01.55 bitrate=   2.9kbits/s speed=0.0094x elapsed=0:02:44.86    \nframe=  187 fps=1.1 q=38.0 size=       1KiB time=00:00:01.55 bitrate=   2.9kbits/s speed=0.00937x elapsed=0:02:45.43    \nframe=  188 fps=1.1 q=35.0 size=       1KiB time=00:00:01.55 bitrate=   2.9kbits/s speed=0.00939x elapsed=0:02:46.00    \nframe=  188 fps=1.1 q=35.0 size=       1KiB time=00:00:01.55 bitrate=   2.9kbits/s speed=0.00935x elapsed=0:02:46.59    \nframe=  189 fps=1.1 q=40.0 size=       1KiB time=00:00:01.56 bitrate=   2.9kbits/s speed=0.00937x elapsed=0:02:47.15    \nframe=  191 fps=1.1 q=37.0 size=       1KiB time=00:00:01.58 bitrate=   2.8kbits/s speed=0.00944x elapsed=0:02:47.71    \nframe=  191 fps=1.1 q=37.0 size=       1KiB time=00:00:01.58 bitrate=   2.8kbits/s speed=0.00941x elapsed=0:02:48.29    \nframe=  193 fps=1.1 q=28.0 size=       1KiB time=00:00:01.60 bitrate=   2.8kbits/s speed=0.00947x elapsed=0:02:48.89    \nframe=  193 fps=1.1 q=28.0 size=       1KiB time=00:00:01.60 bitrate=   2.8kbits/s speed=0.00944x elapsed=0:02:49.46    \nframe=  194 fps=1.1 q=36.0 size=       1KiB time=00:00:01.60 bitrate=   2.8kbits/s speed=0.00946x elapsed=0:02:50.03    \nframe=  194 fps=1.1 q=36.0 size=       1KiB time=00:00:01.60 bitrate=   2.8kbits/s speed=0.00943x elapsed=0:02:50.59    \nframe=  195 fps=1.1 q=37.0 size=       1KiB time=00:00:01.61 bitrate=   2.8kbits/s speed=0.00945x elapsed=0:02:51.16    \nframe=  195 fps=1.1 q=37.0 size=       1KiB time=00:00:01.61 bitrate=   2.8kbits/s speed=0.00941x elapsed=0:02:51.73    \nframe=  195 fps=1.1 q=37.0 size=       1KiB time=00:00:01.61 bitrate=   2.8kbits/s speed=0.00938x elapsed=0:02:52.31    \nframe=  196 fps=1.1 q=31.0 size=       1KiB time=00:00:01.62 bitrate=   2.8kbits/s speed=0.0094x elapsed=0:02:52.87    \nframe=  197 fps=1.1 q=40.0 size=       1KiB time=00:00:01.63 bitrate=   2.7kbits/s speed=0.00942x elapsed=0:02:53.43    \nframe=  198 fps=1.1 q=39.0 size=       1KiB time=00:00:01.64 bitrate=   2.7kbits/s speed=0.00944x elapsed=0:02:53.99    \nframe=  198 fps=1.1 q=39.0 size=       1KiB time=00:00:01.64 bitrate=   2.7kbits/s speed=0.00941x elapsed=0:02:54.54    \nframe=  199 fps=1.1 q=36.0 size=       1KiB time=00:00:01.64 bitrate=   2.7kbits/s speed=0.00938x elapsed=0:02:55.10    \nframe=  199 fps=1.1 q=36.0 size=       1KiB time=00:00:01.65 bitrate=   2.7kbits/s speed=0.00939x elapsed=0:02:55.70    \nframe=  199 fps=1.1 q=36.0 size=       1KiB time=00:00:01.65 bitrate=   2.7kbits/s speed=0.00936x elapsed=0:02:56.30    \nframe=  201 fps=1.1 q=36.0 size=       1KiB time=00:00:01.66 bitrate=   2.7kbits/s speed=0.00942x elapsed=0:02:56.87    \nframe=  201 fps=1.1 q=36.0 size=       1KiB time=00:00:01.66 bitrate=   2.7kbits/s speed=0.00939x elapsed=0:02:57.45    \nframe=  203 fps=1.1 q=38.0 size=       1KiB time=00:00:01.68 bitrate=   2.7kbits/s speed=0.00946x elapsed=0:02:58.02    \nframe=  203 fps=1.1 q=38.0 size=       1KiB time=00:00:01.68 bitrate=   2.7kbits/s speed=0.00943x elapsed=0:02:58.58    \nframe=  204 fps=1.1 q=37.0 size=       1KiB time=00:00:01.69 bitrate=   2.6kbits/s speed=0.00944x elapsed=0:02:59.16    \nframe=  205 fps=1.1 q=40.0 size=       1KiB time=00:00:01.70 bitrate=   2.6kbits/s speed=0.00946x elapsed=0:02:59.74    \nframe=  207 fps=1.1 q=36.0 size=       1KiB time=00:00:01.71 bitrate=   2.6kbits/s speed=0.00952x elapsed=0:03:00.32    \nframe=  208 fps=1.1 q=36.0 size=       1KiB time=00:00:01.72 bitrate=   2.6kbits/s speed=0.00954x elapsed=0:03:00.90    \nframe=  209 fps=1.2 q=27.0 size=       1KiB time=00:00:01.73 bitrate=   2.6kbits/s speed=0.00955x elapsed=0:03:01.51    \nframe=  210 fps=1.2 q=37.0 size=       1KiB time=00:00:01.74 bitrate=   2.6kbits/s speed=0.00957x elapsed=0:03:02.08    \nframe=  210 fps=1.1 q=37.0 size=       1KiB time=00:00:01.74 bitrate=   2.6kbits/s speed=0.00954x elapsed=0:03:02.64    \nframe=  211 fps=1.2 q=38.0 size=       1KiB time=00:00:01.75 bitrate=   2.6kbits/s speed=0.00955x elapsed=0:03:03.22    \nframe=  211 fps=1.1 q=38.0 size=       1KiB time=00:00:01.75 bitrate=   2.6kbits/s speed=0.00952x elapsed=0:03:03.83    \nframe=  213 fps=1.2 q=41.0 size=       1KiB time=00:00:01.76 bitrate=   2.5kbits/s speed=0.00958x elapsed=0:03:04.44    \nframe=  214 fps=1.2 q=37.0 size=       1KiB time=00:00:01.77 bitrate=   2.5kbits/s speed=0.00959x elapsed=0:03:05.07    \nframe=  214 fps=1.2 q=37.0 size=       1KiB time=00:00:01.77 bitrate=   2.5kbits/s speed=0.00956x elapsed=0:03:05.64    \nframe=  215 fps=1.2 q=38.0 size=       1KiB time=00:00:01.78 bitrate=   2.5kbits/s speed=0.00958x elapsed=0:03:06.21    \nframe=  215 fps=1.2 q=38.0 size=       1KiB time=00:00:01.78 bitrate=   2.5kbits/s speed=0.00955x elapsed=0:03:06.79    \nframe=  216 fps=1.2 q=37.0 size=       1KiB time=00:00:01.79 bitrate=   2.5kbits/s speed=0.00956x elapsed=0:03:07.39    \nframe=  217 fps=1.2 q=37.0 size=       1KiB time=00:00:01.80 bitrate=   2.5kbits/s speed=0.00957x elapsed=0:03:08.02    \nframe=  217 fps=1.2 q=37.0 size=       1KiB time=00:00:01.80 bitrate=   2.5kbits/s speed=0.00954x elapsed=0:03:08.66    \nframe=  219 fps=1.2 q=38.0 size=       1KiB time=00:00:01.81 bitrate=   2.5kbits/s speed=0.0096x elapsed=0:03:09.25    \nframe=  220 fps=1.2 q=37.0 size=       1KiB time=00:00:01.81 bitrate=   2.5kbits/s speed=0.00957x elapsed=0:03:09.83    \nframe=  221 fps=1.2 q=41.0 size=       1KiB time=00:00:01.83 bitrate=   2.4kbits/s speed=0.00963x elapsed=0:03:10.39    \nframe=  223 fps=1.2 q=38.0 size=       1KiB time=00:00:01.85 bitrate=   2.4kbits/s speed=0.00969x elapsed=0:03:10.94    \nframe=  223 fps=1.2 q=38.0 size=       1KiB time=00:00:01.85 bitrate=   2.4kbits/s speed=0.00966x elapsed=0:03:11.50    \nframe=  224 fps=1.2 q=37.0 size=       1KiB time=00:00:01.85 bitrate=   2.4kbits/s speed=0.00968x elapsed=0:03:12.06    \nframe=  226 fps=1.2 q=38.0 size=       1KiB time=00:00:01.86 bitrate=   2.4kbits/s speed=0.00969x elapsed=0:03:12.63    \nframe=  227 fps=1.2 q=38.0 size=       1KiB time=00:00:01.88 bitrate=   2.4kbits/s speed=0.00975x elapsed=0:03:13.20    \nframe=  227 fps=1.2 q=38.0 size=       1KiB time=00:00:01.88 bitrate=   2.4kbits/s speed=0.00972x elapsed=0:03:13.77    \nframe=  228 fps=1.2 q=37.0 size=       1KiB time=00:00:01.89 bitrate=   2.4kbits/s speed=0.00973x elapsed=0:03:14.32    \nframe=  229 fps=1.2 q=41.0 size=       1KiB time=00:00:01.90 bitrate=   2.4kbits/s speed=0.00975x elapsed=0:03:14.89    \nframe=  230 fps=1.2 q=37.0 size=       1KiB time=00:00:01.90 bitrate=   2.3kbits/s speed=0.00976x elapsed=0:03:15.45    \nframe=  230 fps=1.2 q=37.0 size=       1KiB time=00:00:01.90 bitrate=   2.3kbits/s speed=0.00974x elapsed=0:03:16.00    \nframe=  231 fps=1.2 q=38.0 size=       1KiB time=00:00:01.91 bitrate=   2.3kbits/s speed=0.00975x elapsed=0:03:16.56    \nframe=  231 fps=1.2 q=38.0 size=       1KiB time=00:00:01.91 bitrate=   2.3kbits/s speed=0.00972x elapsed=0:03:17.12    \nframe=  231 fps=1.2 q=38.0 size=       1KiB time=00:00:01.91 bitrate=   2.3kbits/s speed=0.00969x elapsed=0:03:17.69    \nframe=  232 fps=1.2 q=37.0 size=       1KiB time=00:00:01.92 bitrate=   2.3kbits/s speed=0.00971x elapsed=0:03:18.29    \nframe=  234 fps=1.2 q=37.0 size=       1KiB time=00:00:01.94 bitrate=   2.3kbits/s speed=0.00976x elapsed=0:03:18.86    \nframe=  235 fps=1.2 q=38.0 size=       1KiB time=00:00:01.95 bitrate=   2.3kbits/s speed=0.00978x elapsed=0:03:19.42    \nframe=  235 fps=1.2 q=38.0 size=       1KiB time=00:00:01.95 bitrate=   2.3kbits/s speed=0.00975x elapsed=0:03:19.97    \nframe=  236 fps=1.2 q=37.0 size=       1KiB time=00:00:01.95 bitrate=   2.3kbits/s speed=0.00976x elapsed=0:03:20.54    \nframe=  239 fps=1.2 q=37.0 size=       1KiB time=00:00:01.97 bitrate=   2.3kbits/s speed=0.00982x elapsed=0:03:21.11    \nframe=  241 fps=1.2 q=28.0 size=       1KiB time=00:00:02.00 bitrate=   2.2kbits/s speed=0.00992x elapsed=0:03:21.66    \nframe=  242 fps=1.2 q=38.0 size=       1KiB time=00:00:02.00 bitrate=   2.2kbits/s speed=0.00989x elapsed=0:03:22.23    \nframe=  242 fps=1.2 q=38.0 size=       1KiB time=00:00:02.00 bitrate=   2.2kbits/s speed=0.0099x elapsed=0:03:22.79    \nframe=  243 fps=1.2 q=38.0 size=       1KiB time=00:00:02.01 bitrate=   2.2kbits/s speed=0.00992x elapsed=0:03:23.34    \nframe=  245 fps=1.2 q=41.0 size=       1KiB time=00:00:02.03 bitrate=   2.2kbits/s speed=0.00997x elapsed=0:03:23.90    \nframe=  245 fps=1.2 q=41.0 size=       1KiB time=00:00:02.03 bitrate=   2.2kbits/s speed=0.00994x elapsed=0:03:24.46    \nframe=  245 fps=1.2 q=41.0 size=       1KiB time=00:00:02.03 bitrate=   2.2kbits/s speed=0.00992x elapsed=0:03:25.05    \nframe=  246 fps=1.2 q=37.0 size=       1KiB time=00:00:02.04 bitrate=   2.2kbits/s speed=0.00993x elapsed=0:03:25.60    \nframe=  246 fps=1.2 q=37.0 size=       1KiB time=00:00:02.04 bitrate=   2.2kbits/s speed=0.0099x elapsed=0:03:26.17    \nframe=  246 fps=1.2 q=37.0 size=       1KiB time=00:00:02.04 bitrate=   2.2kbits/s speed=0.00987x elapsed=0:03:26.77    \nframe=  246 fps=1.2 q=37.0 size=       1KiB time=00:00:02.04 bitrate=   2.2kbits/s speed=0.00985x elapsed=0:03:27.35    \nframe=  247 fps=1.2 q=38.0 size=       1KiB time=00:00:02.05 bitrate=   2.2kbits/s speed=0.00986x elapsed=0:03:27.90    \nframe=  247 fps=1.2 q=38.0 size=       1KiB time=00:00:02.05 bitrate=   2.2kbits/s speed=0.00983x elapsed=0:03:28.47    \nframe=  248 fps=1.2 q=32.0 size=       1KiB time=00:00:02.05 bitrate=   2.2kbits/s speed=0.00985x elapsed=0:03:29.04    \nframe=  249 fps=1.2 q=38.0 size=       1KiB time=00:00:02.06 bitrate=   2.2kbits/s speed=0.00986x elapsed=0:03:29.60    \nframe=  251 fps=1.2 q=39.0 size=       1KiB time=00:00:02.08 bitrate=   2.2kbits/s speed=0.00991x elapsed=0:03:30.18    \nframe=  251 fps=1.2 q=39.0 size=       1KiB time=00:00:02.08 bitrate=   2.2kbits/s speed=0.00989x elapsed=0:03:30.75    \nframe=  251 fps=1.2 q=39.0 size=       1KiB time=00:00:02.08 bitrate=   2.2kbits/s speed=0.00986x elapsed=0:03:31.33    \nframe=  252 fps=1.2 q=38.0 size=       1KiB time=00:00:02.09 bitrate=   2.1kbits/s speed=0.00987x elapsed=0:03:31.91    \nframe=  253 fps=1.2 q=41.0 size=       1KiB time=00:00:02.10 bitrate=   2.1kbits/s speed=0.00988x elapsed=0:03:32.50    \nframe=  254 fps=1.2 q=37.0 size=       1KiB time=00:00:02.10 bitrate=   2.1kbits/s speed=0.00989x elapsed=0:03:33.08    \nframe=  255 fps=1.2 q=38.0 size=       1KiB time=00:00:02.11 bitrate=   2.1kbits/s speed=0.00991x elapsed=0:03:33.66    \nframe=  256 fps=1.2 q=38.0 size=       1KiB time=00:00:02.12 bitrate=   2.1kbits/s speed=0.00992x elapsed=0:03:34.24    \nframe=  257 fps=1.2 q=29.0 size=       1KiB time=00:00:02.13 bitrate=   2.1kbits/s speed=0.00993x elapsed=0:03:34.82    \nframe=  258 fps=1.2 q=39.0 size=       1KiB time=00:00:02.14 bitrate=   2.1kbits/s speed=0.00994x elapsed=0:03:35.39    \nframe=  259 fps=1.2 q=39.0 size=       1KiB time=00:00:02.15 bitrate=   2.1kbits/s speed=0.00995x elapsed=0:03:35.98    \nframe=  259 fps=1.2 q=39.0 size=       1KiB time=00:00:02.15 bitrate=   2.1kbits/s speed=0.00993x elapsed=0:03:36.55    \nframe=  260 fps=1.2 q=38.0 size=       1KiB time=00:00:02.15 bitrate=   2.1kbits/s speed=0.00994x elapsed=0:03:37.13    \nframe=  261 fps=1.2 q=41.0 size=       1KiB time=00:00:02.16 bitrate=   2.1kbits/s speed=0.00995x elapsed=0:03:37.69    \nframe=  262 fps=1.2 q=38.0 size=       1KiB time=00:00:02.17 bitrate=   2.1kbits/s speed=0.00997x elapsed=0:03:38.26    \nframe=  262 fps=1.2 q=38.0 size=       1KiB time=00:00:02.17 bitrate=   2.1kbits/s speed=0.00994x elapsed=0:03:38.81    \nframe=  263 fps=1.2 q=39.0 size=       1KiB time=00:00:02.18 bitrate=   2.1kbits/s speed=0.00995x elapsed=0:03:39.37    \nframe=  263 fps=1.2 q=39.0 size=       1KiB time=00:00:02.18 bitrate=   2.1kbits/s speed=0.00993x elapsed=0:03:39.97    \nframe=  264 fps=1.2 q=38.0 size=       1KiB time=00:00:02.19 bitrate=   2.0kbits/s speed=0.00994x elapsed=0:03:40.56    \nframe=  265 fps=1.2 q=39.0 size=       1KiB time=00:00:02.20 bitrate=   2.0kbits/s speed=0.00995x elapsed=0:03:41.12    \nframe=  267 fps=1.2 q=39.0 size=       1KiB time=00:00:02.21 bitrate=   2.0kbits/s speed=0.01x elapsed=0:03:41.68    \nframe=  267 fps=1.2 q=39.0 size=       1KiB time=00:00:02.21 bitrate=   2.0kbits/s speed=0.00997x elapsed=0:03:42.23    \nframe=  268 fps=1.2 q=38.0 size=       1KiB time=00:00:02.22 bitrate=   2.0kbits/s speed=0.00999x elapsed=0:03:42.78    \nframe=  269 fps=1.2 q=42.0 size=       1KiB time=00:00:02.23 bitrate=   2.0kbits/s speed=0.01x elapsed=0:03:43.36    \nframe=  271 fps=1.2 q=38.0 size=       1KiB time=00:00:02.25 bitrate=   2.0kbits/s speed=0.01x elapsed=0:03:43.92    \nframe=  272 fps=1.2 q=38.0 size=       1KiB time=00:00:02.25 bitrate=   2.0kbits/s speed=0.0101x elapsed=0:03:44.50    \nframe=  274 fps=1.2 q=39.0 size=       1KiB time=00:00:02.27 bitrate=   2.0kbits/s speed=0.0101x elapsed=0:03:45.05    \nframe=  275 fps=1.2 q=39.0 size=       1KiB time=00:00:02.28 bitrate=   2.0kbits/s speed=0.0101x elapsed=0:03:45.59    \nframe=  275 fps=1.2 q=39.0 size=       1KiB time=00:00:02.28 bitrate=   2.0kbits/s speed=0.0101x elapsed=0:03:46.17    \nframe=  275 fps=1.2 q=39.0 size=       1KiB time=00:00:02.28 bitrate=   2.0kbits/s speed=0.0101x elapsed=0:03:46.72    \nframe=  276 fps=1.2 q=38.0 size=       1KiB time=00:00:02.29 bitrate=   2.0kbits/s speed=0.0101x elapsed=0:03:47.29    \nframe=  278 fps=1.2 q=33.0 size=       1KiB time=00:00:02.30 bitrate=   1.9kbits/s speed=0.0101x elapsed=0:03:47.84    \nframe=  278 fps=1.2 q=33.0 size=       1KiB time=00:00:02.30 bitrate=   1.9kbits/s speed=0.0101x elapsed=0:03:48.39    \nframe=  279 fps=1.2 q=34.0 size=       1KiB time=00:00:02.30 bitrate=   1.9kbits/s speed=0.0101x elapsed=0:03:48.94    \nframe=  279 fps=1.2 q=34.0 size=       1KiB time=00:00:02.31 bitrate=   1.9kbits/s speed=0.0101x elapsed=0:03:49.51    \nframe=  280 fps=1.2 q=36.0 size=       1KiB time=00:00:02.32 bitrate=   1.9kbits/s speed=0.0101x elapsed=0:03:50.08    \nframe=  281 fps=1.2 q=39.0 size=       1KiB time=00:00:02.33 bitrate=   1.9kbits/s speed=0.0101x elapsed=0:03:50.67    \nframe=  282 fps=1.2 q=40.0 size=       1KiB time=00:00:02.34 bitrate=   1.9kbits/s speed=0.0101x elapsed=0:03:51.24    \nframe=  283 fps=1.2 q=43.0 size=       1KiB time=00:00:02.35 bitrate=   1.9kbits/s speed=0.0101x elapsed=0:03:51.81    \nframe=  284 fps=1.2 q=40.0 size=       1KiB time=00:00:02.35 bitrate=   1.9kbits/s speed=0.0101x elapsed=0:03:52.37    \nframe=  286 fps=1.2 q=38.0 size=       1KiB time=00:00:02.36 bitrate=   1.9kbits/s speed=0.0102x elapsed=0:03:52.92    \nframe=  287 fps=1.2 q=39.0 size=       1KiB time=00:00:02.38 bitrate=   1.9kbits/s speed=0.0102x elapsed=0:03:53.52    \nframe=  287 fps=1.2 q=39.0 size=       1KiB time=00:00:02.38 bitrate=   1.9kbits/s speed=0.0102x elapsed=0:03:54.08    \nframe=  288 fps=1.2 q=39.0 size=       1KiB time=00:00:02.39 bitrate=   1.9kbits/s speed=0.0102x elapsed=0:03:54.64    \nframe=  290 fps=1.2 q=40.0 size=       1KiB time=00:00:02.40 bitrate=   1.9kbits/s speed=0.0102x elapsed=0:03:55.20    \nframe=  290 fps=1.2 q=40.0 size=       1KiB time=00:00:02.40 bitrate=   1.9kbits/s speed=0.0102x elapsed=0:03:55.76    \nframe=  291 fps=1.2 q=40.0 size=       1KiB time=00:00:02.41 bitrate=   1.9kbits/s speed=0.0102x elapsed=0:03:56.32    \nframe=  292 fps=1.2 q=39.0 size=       1KiB time=00:00:02.42 bitrate=   1.8kbits/s speed=0.0102x elapsed=0:03:56.91    \nframe=  292 fps=1.2 q=39.0 size=       1KiB time=00:00:02.42 bitrate=   1.8kbits/s speed=0.0102x elapsed=0:03:57.49    \nframe=  294 fps=1.2 q=39.0 size=       1KiB time=00:00:02.44 bitrate=   1.8kbits/s speed=0.0103x elapsed=0:03:58.07    \nframe=  294 fps=1.2 q=39.0 size=       1KiB time=00:00:02.44 bitrate=   1.8kbits/s speed=0.0102x elapsed=0:03:58.65    \nframe=  294 fps=1.2 q=39.0 size=       1KiB time=00:00:02.44 bitrate=   1.8kbits/s speed=0.0102x elapsed=0:03:59.23    \nframe=  294 fps=1.2 q=39.0 size=       1KiB time=00:00:02.44 bitrate=   1.8kbits/s speed=0.0102x elapsed=0:03:59.81    \nframe=  295 fps=1.2 q=40.0 size=       1KiB time=00:00:02.45 bitrate=   1.8kbits/s speed=0.0102x elapsed=0:04:00.38    \nframe=  295 fps=1.2 q=40.0 size=       1KiB time=00:00:02.45 bitrate=   1.8kbits/s speed=0.0102x elapsed=0:04:00.97    \nframe=  295 fps=1.2 q=40.0 size=       1KiB time=00:00:02.45 bitrate=   1.8kbits/s speed=0.0101x elapsed=0:04:01.56    \nframe=  296 fps=1.2 q=39.0 size=       1KiB time=00:00:02.45 bitrate=   1.8kbits/s speed=0.0102x elapsed=0:04:02.14    \nframe=  298 fps=1.2 q=39.0 size=       1KiB time=00:00:02.47 bitrate=   1.8kbits/s speed=0.0102x elapsed=0:04:02.71    \nframe=  299 fps=1.2 q=40.0 size=       1KiB time=00:00:02.48 bitrate=   1.8kbits/s speed=0.0102x elapsed=0:04:03.29    \nframe=  299 fps=1.2 q=40.0 size=       1KiB time=00:00:02.48 bitrate=   1.8kbits/s speed=0.0102x elapsed=0:04:03.87    \nframe=  300 fps=1.2 q=39.0 size=       1KiB time=00:00:02.49 bitrate=   1.8kbits/s speed=0.0102x elapsed=0:04:04.44    \nframe=  301 fps=1.2 q=42.0 size=       1KiB time=00:00:02.50 bitrate=   1.8kbits/s speed=0.0102x elapsed=0:04:05.00    \nframe=  303 fps=1.2 q=39.0 size=       1KiB time=00:00:02.51 bitrate=   1.8kbits/s speed=0.0102x elapsed=0:04:05.57    \nframe=  304 fps=1.2 q=39.0 size=       1KiB time=00:00:02.52 bitrate=   1.8kbits/s speed=0.0103x elapsed=0:04:06.13    \nframe=  306 fps=1.2 q=40.0 size=       1KiB time=00:00:02.54 bitrate=   1.8kbits/s speed=0.0103x elapsed=0:04:06.67    \nframe=  307 fps=1.2 q=40.0 size=       1KiB time=00:00:02.55 bitrate=   1.8kbits/s speed=0.0103x elapsed=0:04:07.22    \nframe=  307 fps=1.2 q=40.0 size=       1KiB time=00:00:02.55 bitrate=   1.8kbits/s speed=0.0103x elapsed=0:04:07.78    \nframe=  307 fps=1.2 q=40.0 size=       1KiB time=00:00:02.55 bitrate=   1.8kbits/s speed=0.0103x elapsed=0:04:08.32    \nframe=  308 fps=1.2 q=39.0 size=       1KiB time=00:00:02.55 bitrate=   1.8kbits/s speed=0.0103x elapsed=0:04:08.88    \nframe=  309 fps=1.2 q=42.0 size=       1KiB time=00:00:02.56 bitrate=   1.7kbits/s speed=0.0103x elapsed=0:04:09.43    \nframe=  310 fps=1.2 q=36.0 size=       1KiB time=00:00:02.57 bitrate=   1.7kbits/s speed=0.0103x elapsed=0:04:09.98    \nframe=  310 fps=1.2 q=36.0 size=       1KiB time=00:00:02.57 bitrate=   1.7kbits/s speed=0.0103x elapsed=0:04:10.56    \nframe=  310 fps=1.2 q=36.0 size=       1KiB time=00:00:02.57 bitrate=   1.7kbits/s speed=0.0103x elapsed=0:04:11.14    \nframe=  310 fps=1.2 q=36.0 size=       1KiB time=00:00:02.57 bitrate=   1.7kbits/s speed=0.0102x elapsed=0:04:11.70    \nframe=  311 fps=1.2 q=34.0 size=       1KiB time=00:00:02.58 bitrate=   1.7kbits/s speed=0.0102x elapsed=0:04:12.27    \nframe=  311 fps=1.2 q=34.0 size=       1KiB time=00:00:02.58 bitrate=   1.7kbits/s speed=0.0102x elapsed=0:04:12.87    \nframe=  312 fps=1.2 q=36.0 size=       1KiB time=00:00:02.59 bitrate=   1.7kbits/s speed=0.0102x elapsed=0:04:13.47    \nframe=  312 fps=1.2 q=36.0 size=       1KiB time=00:00:02.59 bitrate=   1.7kbits/s speed=0.0102x elapsed=0:04:14.06    \nframe=  313 fps=1.2 q=40.0 size=       1KiB time=00:00:02.60 bitrate=   1.7kbits/s speed=0.0102x elapsed=0:04:14.64    \nframe=  315 fps=1.2 q=45.0 size=       1KiB time=00:00:02.61 bitrate=   1.7kbits/s speed=0.0103x elapsed=0:04:15.23    \nframe=  315 fps=1.2 q=45.0 size=       1KiB time=00:00:02.61 bitrate=   1.7kbits/s speed=0.0102x elapsed=0:04:15.80    \nframe=  318 fps=1.2 q=40.0 size=       1KiB time=00:00:02.64 bitrate=   1.7kbits/s speed=0.0103x elapsed=0:04:16.36    \nframe=  319 fps=1.2 q=41.0 size=       1KiB time=00:00:02.65 bitrate=   1.7kbits/s speed=0.0103x elapsed=0:04:16.92    \nframe=  320 fps=1.2 q=40.0 size=       1KiB time=00:00:02.65 bitrate=   1.7kbits/s speed=0.0103x elapsed=0:04:17.51    \nframe=  321 fps=1.2 q=29.0 size=       1KiB time=00:00:02.66 bitrate=   1.7kbits/s speed=0.0103x elapsed=0:04:18.08    \nframe=  322 fps=1.2 q=41.0 size=       1KiB time=00:00:02.67 bitrate=   1.7kbits/s speed=0.0103x elapsed=0:04:18.68    \nframe=  322 fps=1.2 q=41.0 size=       1KiB time=00:00:02.67 bitrate=   1.7kbits/s speed=0.0103x elapsed=0:04:19.25    \nframe=  323 fps=1.2 q=41.0 size=       1KiB time=00:00:02.68 bitrate=   1.7kbits/s speed=0.0103x elapsed=0:04:19.82    \nframe=  324 fps=1.2 q=40.0 size=       1KiB time=00:00:02.69 bitrate=   1.7kbits/s speed=0.0103x elapsed=0:04:20.38    \nframe=  325 fps=1.2 q=43.0 size=       1KiB time=00:00:02.70 bitrate=   1.7kbits/s speed=0.0103x elapsed=0:04:20.94    \nframe=  326 fps=1.2 q=40.0 size=       1KiB time=00:00:02.70 bitrate=   1.7kbits/s speed=0.0104x elapsed=0:04:21.52    \nframe=  326 fps=1.2 q=40.0 size=       1KiB time=00:00:02.70 bitrate=   1.7kbits/s speed=0.0103x elapsed=0:04:22.10    \nframe=  327 fps=1.2 q=41.0 size=       1KiB time=00:00:02.71 bitrate=   1.6kbits/s speed=0.0103x elapsed=0:04:22.70    \nframe=  327 fps=1.2 q=41.0 size=       1KiB time=00:00:02.71 bitrate=   1.6kbits/s speed=0.0103x elapsed=0:04:23.34    \nframe=  328 fps=1.2 q=40.0 size=       1KiB time=00:00:02.72 bitrate=   1.6kbits/s speed=0.0103x elapsed=0:04:23.96    \nframe=  328 fps=1.2 q=40.0 size=       1KiB time=00:00:02.72 bitrate=   1.6kbits/s speed=0.0103x elapsed=0:04:24.56    \nframe=  329 fps=1.2 q=41.0 size=       1KiB time=00:00:02.73 bitrate=   1.6kbits/s speed=0.0103x elapsed=0:04:25.15    \nframe=  330 fps=1.2 q=39.0 size=       1KiB time=00:00:02.74 bitrate=   1.6kbits/s speed=0.0103x elapsed=0:04:25.74    \nframe=  331 fps=1.2 q=40.0 size=       1KiB time=00:00:02.75 bitrate=   1.6kbits/s speed=0.0103x elapsed=0:04:26.31    \nframe=  332 fps=1.2 q=39.0 size=       1KiB time=00:00:02.75 bitrate=   1.6kbits/s speed=0.0103x elapsed=0:04:26.89    \nframe=  333 fps=1.2 q=42.0 size=       1KiB time=00:00:02.76 bitrate=   1.6kbits/s speed=0.0103x elapsed=0:04:27.46    \nframe=  334 fps=1.2 q=39.0 size=       1KiB time=00:00:02.77 bitrate=   1.6kbits/s speed=0.0104x elapsed=0:04:28.04    \nframe=  335 fps=1.2 q=39.0 size=       1KiB time=00:00:02.78 bitrate=   1.6kbits/s speed=0.0104x elapsed=0:04:28.64    \nframe=  336 fps=1.2 q=39.0 size=       1KiB time=00:00:02.79 bitrate=   1.6kbits/s speed=0.0104x elapsed=0:04:29.21    \nframe=  337 fps=1.2 q=29.0 size=       1KiB time=00:00:02.80 bitrate=   1.6kbits/s speed=0.0104x elapsed=0:04:29.82    \nframe=  338 fps=1.2 q=40.0 size=       1KiB time=00:00:02.80 bitrate=   1.6kbits/s speed=0.0104x elapsed=0:04:30.42    \nframe=  339 fps=1.3 q=41.0 size=       1KiB time=00:00:02.81 bitrate=   1.6kbits/s speed=0.0104x elapsed=0:04:30.99    \nframe=  340 fps=1.3 q=40.0 size=       1KiB time=00:00:02.82 bitrate=   1.6kbits/s speed=0.0104x elapsed=0:04:31.55    \nframe=  341 fps=1.3 q=43.0 size=       1KiB time=00:00:02.83 bitrate=   1.6kbits/s speed=0.0104x elapsed=0:04:32.11    \nframe=  342 fps=1.3 q=40.0 size=       1KiB time=00:00:02.84 bitrate=   1.6kbits/s speed=0.0104x elapsed=0:04:32.67    \nframe=  343 fps=1.3 q=41.0 size=       1KiB time=00:00:02.84 bitrate=   1.6kbits/s speed=0.0104x elapsed=0:04:33.22    \nframe=  344 fps=1.3 q=40.0 size=       1KiB time=00:00:02.85 bitrate=   1.6kbits/s speed=0.0104x elapsed=0:04:33.77    \nframe=  345 fps=1.3 q=40.0 size=       1KiB time=00:00:02.86 bitrate=   1.6kbits/s speed=0.0104x elapsed=0:04:34.33    \nframe=  347 fps=1.3 q=40.0 size=       1KiB time=00:00:02.88 bitrate=   1.6kbits/s speed=0.0105x elapsed=0:04:34.90    \nframe=  347 fps=1.3 q=40.0 size=       1KiB time=00:00:02.88 bitrate=   1.6kbits/s speed=0.0105x elapsed=0:04:35.44    \nframe=  348 fps=1.3 q=39.0 size=       1KiB time=00:00:02.89 bitrate=   1.5kbits/s speed=0.0105x elapsed=0:04:36.02    \nframe=  350 fps=1.3 q=40.0 size=       1KiB time=00:00:02.90 bitrate=   1.5kbits/s speed=0.0105x elapsed=0:04:36.63    \nframe=  351 fps=1.3 q=40.0 size=       1KiB time=00:00:02.91 bitrate=   1.5kbits/s speed=0.0105x elapsed=0:04:37.21    \nframe=  352 fps=1.3 q=40.0 size=       1KiB time=00:00:02.91 bitrate=   1.5kbits/s speed=0.0105x elapsed=0:04:37.78    \nframe=  353 fps=1.3 q=29.0 size=       1KiB time=00:00:02.93 bitrate=   1.5kbits/s speed=0.0105x elapsed=0:04:38.36    \nframe=  354 fps=1.3 q=40.0 size=       1KiB time=00:00:02.94 bitrate=   1.5kbits/s speed=0.0105x elapsed=0:04:38.95    \nframe=  354 fps=1.3 q=40.0 size=       1KiB time=00:00:02.94 bitrate=   1.5kbits/s speed=0.0105x elapsed=0:04:39.52    \nframe=  355 fps=1.3 q=41.0 size=       1KiB time=00:00:02.95 bitrate=   1.5kbits/s speed=0.0105x elapsed=0:04:40.11    \nframe=  356 fps=1.3 q=40.0 size=       1KiB time=00:00:02.95 bitrate=   1.5kbits/s speed=0.0105x elapsed=0:04:40.68    \nframe=  358 fps=1.3 q=40.0 size=       1KiB time=00:00:02.97 bitrate=   1.5kbits/s speed=0.0106x elapsed=0:04:41.26    \nframe=  358 fps=1.3 q=40.0 size=       1KiB time=00:00:02.97 bitrate=   1.5kbits/s speed=0.0106x elapsed=0:04:41.83    \nframe=  359 fps=1.3 q=41.0 size=       1KiB time=00:00:02.98 bitrate=   1.5kbits/s speed=0.0106x elapsed=0:04:42.37    \nframe=  359 fps=1.3 q=41.0 size=       1KiB time=00:00:02.98 bitrate=   1.5kbits/s speed=0.0105x elapsed=0:04:42.95    \nframe=  360 fps=1.3 q=40.0 size=       1KiB time=00:00:02.99 bitrate=   1.5kbits/s speed=0.0106x elapsed=0:04:43.55    \nframe=  361 fps=1.3 q=40.0 size=       1KiB time=00:00:03.00 bitrate=   1.5kbits/s speed=0.0106x elapsed=0:04:44.11    \nframe=  363 fps=1.3 q=41.0 size=       1KiB time=00:00:03.01 bitrate=   1.5kbits/s speed=0.0106x elapsed=0:04:44.68    \nframe=  364 fps=1.3 q=40.0 size=       1KiB time=00:00:03.02 bitrate=   1.5kbits/s speed=0.0106x elapsed=0:04:45.25    \nframe=  365 fps=1.3 q=42.0 size=       1KiB time=00:00:03.03 bitrate=   1.5kbits/s speed=0.0106x elapsed=0:04:45.82    \nframe=  367 fps=1.3 q=40.0 size=       1KiB time=00:00:03.05 bitrate=   1.5kbits/s speed=0.0106x elapsed=0:04:46.39    \nframe=  367 fps=1.3 q=40.0 size=       1KiB time=00:00:03.05 bitrate=   1.5kbits/s speed=0.0106x elapsed=0:04:46.95    \nframe=  369 fps=1.3 q=29.0 size=       1KiB time=00:00:03.06 bitrate=   1.5kbits/s speed=0.0107x elapsed=0:04:47.51    \nframe=  370 fps=1.3 q=40.0 size=       1KiB time=00:00:03.07 bitrate=   1.5kbits/s speed=0.0107x elapsed=0:04:48.07    \nframe=  371 fps=1.3 q=41.0 size=       1KiB time=00:00:03.08 bitrate=   1.5kbits/s speed=0.0107x elapsed=0:04:48.63    \nframe=  372 fps=1.3 q=40.0 size=       1KiB time=00:00:03.09 bitrate=   1.4kbits/s speed=0.0107x elapsed=0:04:49.20    \nframe=  373 fps=1.3 q=43.0 size=       1KiB time=00:00:03.10 bitrate=   1.4kbits/s speed=0.0107x elapsed=0:04:49.77    \nframe=  373 fps=1.3 q=43.0 size=       1KiB time=00:00:03.10 bitrate=   1.4kbits/s speed=0.0107x elapsed=0:04:50.35    \nframe=  374 fps=1.3 q=40.0 size=       1KiB time=00:00:03.10 bitrate=   1.4kbits/s speed=0.0107x elapsed=0:04:50.93    \nframe=  374 fps=1.3 q=40.0 size=       1KiB time=00:00:03.10 bitrate=   1.4kbits/s speed=0.0107x elapsed=0:04:51.50    \nframe=  374 fps=1.3 q=40.0 size=       1KiB time=00:00:03.10 bitrate=   1.4kbits/s speed=0.0106x elapsed=0:04:52.06    \nframe=  375 fps=1.3 q=41.0 size=       1KiB time=00:00:03.10 bitrate=   1.4kbits/s speed=0.0106x elapsed=0:04:52.65    \nframe=  375 fps=1.3 q=41.0 size=       1KiB time=00:00:03.11 bitrate=   1.4kbits/s speed=0.0106x elapsed=0:04:53.25    \nframe=  376 fps=1.3 q=34.0 size=       1KiB time=00:00:03.12 bitrate=   1.4kbits/s speed=0.0106x elapsed=0:04:53.83    \nframe=  377 fps=1.3 q=40.0 size=       1KiB time=00:00:03.13 bitrate=   1.4kbits/s speed=0.0106x elapsed=0:04:54.41    \nframe=  379 fps=1.3 q=41.0 size=       1KiB time=00:00:03.15 bitrate=   1.4kbits/s speed=0.0107x elapsed=0:04:54.97    \nframe=  380 fps=1.3 q=41.0 size=       1KiB time=00:00:03.15 bitrate=   1.4kbits/s speed=0.0107x elapsed=0:04:55.55    \nframe=  382 fps=1.3 q=41.0 size=       1KiB time=00:00:03.16 bitrate=   1.4kbits/s speed=0.0107x elapsed=0:04:56.14    \nframe=  383 fps=1.3 q=41.0 size=       1KiB time=00:00:03.18 bitrate=   1.4kbits/s speed=0.0107x elapsed=0:04:56.71    \nframe=  384 fps=1.3 q=41.0 size=       1KiB time=00:00:03.19 bitrate=   1.4kbits/s speed=0.0107x elapsed=0:04:57.27    \nframe=  386 fps=1.3 q=41.0 size=       1KiB time=00:00:03.20 bitrate=   1.4kbits/s speed=0.0107x elapsed=0:04:57.84    \nframe=  386 fps=1.3 q=41.0 size=       1KiB time=00:00:03.20 bitrate=   1.4kbits/s speed=0.0108x elapsed=0:04:58.39    \nframe=  389 fps=1.3 q=43.0 size=       1KiB time=00:00:03.23 bitrate=   1.4kbits/s speed=0.0108x elapsed=0:04:58.93    \nframe=  389 fps=1.3 q=43.0 size=       1KiB time=00:00:03.23 bitrate=   1.4kbits/s speed=0.0108x elapsed=0:04:59.49    \nframe=  390 fps=1.3 q=41.0 size=       1KiB time=00:00:03.24 bitrate=   1.4kbits/s speed=0.0108x elapsed=0:05:00.04    \nframe=  390 fps=1.3 q=41.0 size=       1KiB time=00:00:03.24 bitrate=   1.4kbits/s speed=0.0108x elapsed=0:05:00.60    \nframe=  391 fps=1.3 q=42.0 size=       1KiB time=00:00:03.25 bitrate=   1.4kbits/s speed=0.0108x elapsed=0:05:01.16    \nframe=  392 fps=1.3 q=35.0 size=       1KiB time=00:00:03.25 bitrate=   1.4kbits/s speed=0.0108x elapsed=0:05:01.73    \nframe=  394 fps=1.3 q=41.0 size=       1KiB time=00:00:03.27 bitrate=   1.4kbits/s speed=0.0108x elapsed=0:05:02.28    \nframe=  395 fps=1.3 q=41.0 size=       1KiB time=00:00:03.28 bitrate=   1.4kbits/s speed=0.0108x elapsed=0:05:02.84    \nframe=  396 fps=1.3 q=41.0 size=       1KiB time=00:00:03.29 bitrate=   1.4kbits/s speed=0.0108x elapsed=0:05:03.39    \nframe=  399 fps=1.3 q=41.0 size=       1KiB time=00:00:03.31 bitrate=   1.4kbits/s speed=0.0109x elapsed=0:05:03.95    \nframe=  400 fps=1.3 q=41.0 size=       1KiB time=00:00:03.31 bitrate=   1.4kbits/s speed=0.0109x elapsed=0:05:04.50    \nframe=  401 fps=1.3 q=29.0 size=       1KiB time=00:00:03.33 bitrate=   1.3kbits/s speed=0.0109x elapsed=0:05:05.10    \nframe=  402 fps=1.3 q=41.0 size=       1KiB time=00:00:03.34 bitrate=   1.3kbits/s speed=0.0109x elapsed=0:05:05.65    \nframe=  403 fps=1.3 q=42.0 size=       1KiB time=00:00:03.35 bitrate=   1.3kbits/s speed=0.0109x elapsed=0:05:06.23    \nframe=  404 fps=1.3 q=41.0 size=       1KiB time=00:00:03.35 bitrate=   1.3kbits/s speed=0.0109x elapsed=0:05:06.79    \nframe=  406 fps=1.3 q=41.0 size=       1KiB time=00:00:03.37 bitrate=   1.3kbits/s speed=0.011x elapsed=0:05:07.35    \nframe=  406 fps=1.3 q=41.0 size=       1KiB time=00:00:03.37 bitrate=   1.3kbits/s speed=0.011x elapsed=0:05:07.91    \nframe=  407 fps=1.3 q=42.0 size=       1KiB time=00:00:03.38 bitrate=   1.3kbits/s speed=0.011x elapsed=0:05:08.47    \nframe=  408 fps=1.3 q=41.0 size=       1KiB time=00:00:03.39 bitrate=   1.3kbits/s speed=0.011x elapsed=0:05:09.03    \nframe=  411 fps=1.3 q=41.0 size=       1KiB time=00:00:03.41 bitrate=   1.3kbits/s speed=0.011x elapsed=0:05:09.58    \nframe=  411 fps=1.3 q=41.0 size=       1KiB time=00:00:03.41 bitrate=   1.3kbits/s speed=0.011x elapsed=0:05:10.14    \nframe=  412 fps=1.3 q=41.0 size=       1KiB time=00:00:03.42 bitrate=   1.3kbits/s speed=0.011x elapsed=0:05:10.71    \nframe=  413 fps=1.3 q=42.0 size=       1KiB time=00:00:03.43 bitrate=   1.3kbits/s speed=0.011x elapsed=0:05:11.27    \nframe=  415 fps=1.3 q=41.0 size=       1KiB time=00:00:03.45 bitrate=   1.3kbits/s speed=0.0111x elapsed=0:05:11.86    \nframe=  416 fps=1.3 q=41.0 size=       1KiB time=00:00:03.45 bitrate=   1.3kbits/s speed=0.0111x elapsed=0:05:12.42    \nframe=  418 fps=1.3 q=41.0 size=       1KiB time=00:00:03.47 bitrate=   1.3kbits/s speed=0.0111x elapsed=0:05:13.00    \nframe=  419 fps=1.3 q=42.0 size=       1KiB time=00:00:03.48 bitrate=   1.3kbits/s speed=0.0111x elapsed=0:05:13.58    \nframe=  420 fps=1.3 q=41.0 size=       1KiB time=00:00:03.49 bitrate=   1.3kbits/s speed=0.0111x elapsed=0:05:14.15    \nframe=  421 fps=1.3 q=43.0 size=       1KiB time=00:00:03.50 bitrate=   1.3kbits/s speed=0.0111x elapsed=0:05:14.72    \nframe=  421 fps=1.3 q=43.0 size=       1KiB time=00:00:03.50 bitrate=   1.3kbits/s speed=0.0111x elapsed=0:05:15.28    \nframe=  423 fps=1.3 q=42.0 size=       1KiB time=00:00:03.51 bitrate=   1.3kbits/s speed=0.0111x elapsed=0:05:15.85    \nframe=  423 fps=1.3 q=42.0 size=       1KiB time=00:00:03.51 bitrate=   1.3kbits/s speed=0.0111x elapsed=0:05:16.42    \nframe=  425 fps=1.3 q=40.0 size=       1KiB time=00:00:03.53 bitrate=   1.3kbits/s speed=0.0111x elapsed=0:05:16.98    \nframe=  426 fps=1.3 q=41.0 size=       1KiB time=00:00:03.54 bitrate=   1.3kbits/s speed=0.0112x elapsed=0:05:17.56    \nframe=  427 fps=1.3 q=41.0 size=       1KiB time=00:00:03.55 bitrate=   1.3kbits/s speed=0.0112x elapsed=0:05:18.15    \nframe=  428 fps=1.3 q=41.0 size=       1KiB time=00:00:03.55 bitrate=   1.3kbits/s speed=0.0112x elapsed=0:05:18.73    \nframe=  429 fps=1.3 q=42.0 size=       1KiB time=00:00:03.56 bitrate=   1.3kbits/s speed=0.0112x elapsed=0:05:19.34    \nframe=  431 fps=1.3 q=41.0 size=       1KiB time=00:00:03.57 bitrate=   1.3kbits/s speed=0.0112x elapsed=0:05:19.93    \nframe=  431 fps=1.3 q=41.0 size=       1KiB time=00:00:03.58 bitrate=   1.3kbits/s speed=0.0112x elapsed=0:05:20.49    \nframe=  433 fps=1.3 q=29.0 size=       1KiB time=00:00:03.59 bitrate=   1.2kbits/s speed=0.0112x elapsed=0:05:21.08    \nframe=  434 fps=1.3 q=41.0 size=       1KiB time=00:00:03.60 bitrate=   1.2kbits/s speed=0.0112x elapsed=0:05:21.70    \nframe=  434 fps=1.3 q=41.0 size=       1KiB time=00:00:03.60 bitrate=   1.2kbits/s speed=0.0112x elapsed=0:05:22.29    \nframe=  435 fps=1.3 q=42.0 size=       1KiB time=00:00:03.61 bitrate=   1.2kbits/s speed=0.0112x elapsed=0:05:22.86    \nframe=  436 fps=1.3 q=41.0 size=       1KiB time=00:00:03.62 bitrate=   1.2kbits/s speed=0.0112x elapsed=0:05:23.44    \nframe=  438 fps=1.4 q=41.0 size=       1KiB time=00:00:03.64 bitrate=   1.2kbits/s speed=0.0112x elapsed=0:05:24.00    \nframe=  438 fps=1.3 q=41.0 size=       1KiB time=00:00:03.64 bitrate=   1.2kbits/s speed=0.0112x elapsed=0:05:24.54    \nframe=  439 fps=1.4 q=42.0 size=       1KiB time=00:00:03.65 bitrate=   1.2kbits/s speed=0.0112x elapsed=0:05:25.09    \nframe=  440 fps=1.4 q=41.0 size=       1KiB time=00:00:03.65 bitrate=   1.2kbits/s speed=0.0112x elapsed=0:05:25.64    \nframe=  443 fps=1.4 q=41.0 size=       1KiB time=00:00:03.68 bitrate=   1.2kbits/s speed=0.0113x elapsed=0:05:26.20    \nframe=  444 fps=1.4 q=41.0 size=       1KiB time=00:00:03.69 bitrate=   1.2kbits/s speed=0.0113x elapsed=0:05:26.78    \nframe=  445 fps=1.4 q=42.0 size=       1KiB time=00:00:03.70 bitrate=   1.2kbits/s speed=0.0113x elapsed=0:05:27.38    \nframe=  448 fps=1.4 q=40.0 size=       1KiB time=00:00:03.72 bitrate=   1.2kbits/s speed=0.0114x elapsed=0:05:27.94    \nframe=  449 fps=1.4 q=29.0 size=       1KiB time=00:00:03.72 bitrate=   1.2kbits/s speed=0.0113x elapsed=0:05:28.51    \nframe=  450 fps=1.4 q=41.0 size=       1KiB time=00:00:03.74 bitrate=   1.2kbits/s speed=0.0114x elapsed=0:05:29.10    \nframe=  451 fps=1.4 q=42.0 size=       1KiB time=00:00:03.75 bitrate=   1.2kbits/s speed=0.0114x elapsed=0:05:29.67    \nframe=  452 fps=1.4 q=41.0 size=       1KiB time=00:00:03.75 bitrate=   1.2kbits/s speed=0.0114x elapsed=0:05:30.24    \nframe=  454 fps=1.4 q=41.0 size=       1KiB time=00:00:03.77 bitrate=   1.2kbits/s speed=0.0114x elapsed=0:05:30.82    \nframe=  454 fps=1.4 q=41.0 size=       1KiB time=00:00:03.77 bitrate=   1.2kbits/s speed=0.0114x elapsed=0:05:31.38    \nframe=  455 fps=1.4 q=42.0 size=       1KiB time=00:00:03.78 bitrate=   1.2kbits/s speed=0.0114x elapsed=0:05:31.96    \nframe=  456 fps=1.4 q=41.0 size=       1KiB time=00:00:03.78 bitrate=   1.2kbits/s speed=0.0114x elapsed=0:05:32.53    \nframe=  457 fps=1.4 q=40.0 size=       1KiB time=00:00:03.80 bitrate=   1.2kbits/s speed=0.0114x elapsed=0:05:33.07    \nframe=  459 fps=1.4 q=41.0 size=       1KiB time=00:00:03.81 bitrate=   1.2kbits/s speed=0.0114x elapsed=0:05:33.63    \nframe=  460 fps=1.4 q=41.0 size=       1KiB time=00:00:03.82 bitrate=   1.2kbits/s speed=0.0114x elapsed=0:05:34.19    \nframe=  462 fps=1.4 q=40.0 size=       1KiB time=00:00:03.84 bitrate=   1.2kbits/s speed=0.0115x elapsed=0:05:34.74    \nframe=  464 fps=1.4 q=40.0 size=       1KiB time=00:00:03.85 bitrate=   1.2kbits/s speed=0.0115x elapsed=0:05:35.30    \nframe=  465 fps=1.4 q=29.0 size=       1KiB time=00:00:03.86 bitrate=   1.2kbits/s speed=0.0115x elapsed=0:05:35.85    \nframe=  466 fps=1.4 q=41.0 size=       1KiB time=00:00:03.87 bitrate=   1.2kbits/s speed=0.0115x elapsed=0:05:36.41    \nframe=  467 fps=1.4 q=41.0 size=       1KiB time=00:00:03.88 bitrate=   1.2kbits/s speed=0.0115x elapsed=0:05:36.96    \nframe=  469 fps=1.4 q=42.0 size=       1KiB time=00:00:03.90 bitrate=   1.1kbits/s speed=0.0116x elapsed=0:05:37.55    \nframe=  470 fps=1.4 q=41.0 size=       1KiB time=00:00:03.90 bitrate=   1.1kbits/s speed=0.0115x elapsed=0:05:38.13    \nframe=  470 fps=1.4 q=41.0 size=       1KiB time=00:00:03.90 bitrate=   1.1kbits/s speed=0.0115x elapsed=0:05:38.71    \nframe=  470 fps=1.4 q=41.0 size=       1KiB time=00:00:03.90 bitrate=   1.1kbits/s speed=0.0115x elapsed=0:05:39.27    \nframe=  471 fps=1.4 q=41.0 size=       1KiB time=00:00:03.91 bitrate=   1.1kbits/s speed=0.0115x elapsed=0:05:39.83    \nframe=  472 fps=1.4 q=35.0 size=       1KiB time=00:00:03.92 bitrate=   1.1kbits/s speed=0.0115x elapsed=0:05:40.43    \nframe=  473 fps=1.4 q=39.0 size=       1KiB time=00:00:03.93 bitrate=   1.1kbits/s speed=0.0115x elapsed=0:05:41.03    \nframe=  475 fps=1.4 q=41.0 size=       1KiB time=00:00:03.95 bitrate=   1.1kbits/s speed=0.0116x elapsed=0:05:41.60    \nframe=  475 fps=1.4 q=41.0 size=       1KiB time=00:00:03.95 bitrate=   1.1kbits/s speed=0.0115x elapsed=0:05:42.18    \nframe=  476 fps=1.4 q=41.0 size=       1KiB time=00:00:03.95 bitrate=   1.1kbits/s speed=0.0115x elapsed=0:05:42.76    \nframe=  478 fps=1.4 q=41.0 size=       1KiB time=00:00:03.97 bitrate=   1.1kbits/s speed=0.0116x elapsed=0:05:43.35    \nframe=  478 fps=1.4 q=41.0 size=       1KiB time=00:00:03.97 bitrate=   1.1kbits/s speed=0.0116x elapsed=0:05:43.93    \nframe=  480 fps=1.4 q=41.0 size=       1KiB time=00:00:03.99 bitrate=   1.1kbits/s speed=0.0116x elapsed=0:05:44.50    \nframe=  481 fps=1.4 q=30.0 size=       1KiB time=00:00:04.00 bitrate=   1.1kbits/s speed=0.0116x elapsed=0:05:45.09    \nframe=  482 fps=1.4 q=41.0 size=       1KiB time=00:00:04.00 bitrate=   1.1kbits/s speed=0.0116x elapsed=0:05:45.67    \nframe=  482 fps=1.4 q=41.0 size=       1KiB time=00:00:04.00 bitrate=   1.1kbits/s speed=0.0116x elapsed=0:05:46.25    \nframe=  483 fps=1.4 q=41.0 size=       1KiB time=00:00:04.01 bitrate=   1.1kbits/s speed=0.0116x elapsed=0:05:46.81    \nframe=  484 fps=1.4 q=41.0 size=       1KiB time=00:00:04.02 bitrate=   1.1kbits/s speed=0.0116x elapsed=0:05:47.38    \nframe=  485 fps=1.4 q=42.0 size=       1KiB time=00:00:04.03 bitrate=   1.1kbits/s speed=0.0116x elapsed=0:05:47.97    \nframe=  485 fps=1.4 q=42.0 size=       1KiB time=00:00:04.03 bitrate=   1.1kbits/s speed=0.0116x elapsed=0:05:48.53    \nframe=  486 fps=1.4 q=41.0 size=       1KiB time=00:00:04.04 bitrate=   1.1kbits/s speed=0.0116x elapsed=0:05:49.10    \nframe=  487 fps=1.4 q=41.0 size=       1KiB time=00:00:04.05 bitrate=   1.1kbits/s speed=0.0116x elapsed=0:05:49.67    \nframe=  487 fps=1.4 q=41.0 size=       1KiB time=00:00:04.05 bitrate=   1.1kbits/s speed=0.0116x elapsed=0:05:50.25    \nframe=  487 fps=1.4 q=41.0 size=       1KiB time=00:00:04.05 bitrate=   1.1kbits/s speed=0.0115x elapsed=0:05:50.81    \nframe=  489 fps=1.4 q=40.0 size=       1KiB time=00:00:04.06 bitrate=   1.1kbits/s speed=0.0116x elapsed=0:05:51.38    \nframe=  491 fps=1.4 q=41.0 size=       1KiB time=00:00:04.07 bitrate=   1.1kbits/s speed=0.0116x elapsed=0:05:51.93    \nframe=  491 fps=1.4 q=41.0 size=       1KiB time=00:00:04.08 bitrate=   1.1kbits/s speed=0.0116x elapsed=0:05:52.48    \nframe=  492 fps=1.4 q=41.0 size=       1KiB time=00:00:04.09 bitrate=   1.1kbits/s speed=0.0116x elapsed=0:05:53.06    \nframe=  493 fps=1.4 q=42.0 size=       1KiB time=00:00:04.10 bitrate=   1.1kbits/s speed=0.0116x elapsed=0:05:53.63    \nframe=  494 fps=1.4 q=40.0 size=       1KiB time=00:00:04.10 bitrate=   1.1kbits/s speed=0.0116x elapsed=0:05:54.19    \nframe=  495 fps=1.4 q=40.0 size=       1KiB time=00:00:04.11 bitrate=   1.1kbits/s speed=0.0116x elapsed=0:05:54.74    \nframe=  496 fps=1.4 q=40.0 size=       1KiB time=00:00:04.12 bitrate=   1.1kbits/s speed=0.0116x elapsed=0:05:55.31    \nframe=  497 fps=1.4 q=29.0 size=       1KiB time=00:00:04.13 bitrate=   1.1kbits/s speed=0.0116x elapsed=0:05:55.87    \nframe=  498 fps=1.4 q=41.0 size=       1KiB time=00:00:04.14 bitrate=   1.1kbits/s speed=0.0116x elapsed=0:05:56.44    \nframe=  499 fps=1.4 q=42.0 size=       1KiB time=00:00:04.15 bitrate=   1.1kbits/s speed=0.0116x elapsed=0:05:57.01    \nframe=  501 fps=1.4 q=43.0 size=       1KiB time=00:00:04.16 bitrate=   1.1kbits/s speed=0.0117x elapsed=0:05:57.58    \nframe=  502 fps=1.4 q=41.0 size=       1KiB time=00:00:04.17 bitrate=   1.1kbits/s speed=0.0117x elapsed=0:05:58.15    \nframe=  502 fps=1.4 q=41.0 size=       1KiB time=00:00:04.17 bitrate=   1.1kbits/s speed=0.0116x elapsed=0:05:58.71    \nframe=  505 fps=1.4 q=40.0 size=       1KiB time=00:00:04.20 bitrate=   1.1kbits/s speed=0.0117x elapsed=0:05:59.26    \nframe=  505 fps=1.4 q=40.0 size=       1KiB time=00:00:04.20 bitrate=   1.1kbits/s speed=0.0117x elapsed=0:05:59.84    \nframe=  507 fps=1.4 q=41.0 size=       1KiB time=00:00:04.21 bitrate=   1.1kbits/s speed=0.0117x elapsed=0:06:00.40    \nframe=  509 fps=1.4 q=42.0 size=       1KiB time=00:00:04.23 bitrate=   1.1kbits/s speed=0.0117x elapsed=0:06:00.97    \nframe=  511 fps=1.4 q=40.0 size=       1KiB time=00:00:04.25 bitrate=   1.1kbits/s speed=0.0118x elapsed=0:06:01.53    \nframe=  513 fps=1.4 q=29.0 size=       1KiB time=00:00:04.26 bitrate=   1.0kbits/s speed=0.0118x elapsed=0:06:02.11    \nframe=  513 fps=1.4 q=29.0 size=       1KiB time=00:00:04.26 bitrate=   1.0kbits/s speed=0.0118x elapsed=0:06:02.70    \nframe=  513 fps=1.4 q=29.0 size=       1KiB time=00:00:04.26 bitrate=   1.0kbits/s speed=0.0117x elapsed=0:06:03.29    \nframe=  515 fps=1.4 q=42.0 size=       1KiB time=00:00:04.28 bitrate=   1.0kbits/s speed=0.0118x elapsed=0:06:03.86    \nframe=  517 fps=1.4 q=43.0 size=       1KiB time=00:00:04.30 bitrate=   1.0kbits/s speed=0.0118x elapsed=0:06:04.45    \nframe=  517 fps=1.4 q=43.0 size=       1KiB time=00:00:04.30 bitrate=   1.0kbits/s speed=0.0118x elapsed=0:06:05.01    \nframe=  517 fps=1.4 q=43.0 size=       1KiB time=00:00:04.30 bitrate=   1.0kbits/s speed=0.0118x elapsed=0:06:05.56    \nframe=  519 fps=1.4 q=42.0 size=       1KiB time=00:00:04.31 bitrate=   1.0kbits/s speed=0.0118x elapsed=0:06:06.13    \nframe=  519 fps=1.4 q=42.0 size=       1KiB time=00:00:04.31 bitrate=   1.0kbits/s speed=0.0118x elapsed=0:06:06.68    \nframe=  521 fps=1.4 q=40.0 size=       1KiB time=00:00:04.33 bitrate=   1.0kbits/s speed=0.0118x elapsed=0:06:07.24    \nframe=  521 fps=1.4 q=40.0 size=       1KiB time=00:00:04.33 bitrate=   1.0kbits/s speed=0.0118x elapsed=0:06:07.82    \nframe=  521 fps=1.4 q=40.0 size=       1KiB time=00:00:04.33 bitrate=   1.0kbits/s speed=0.0118x elapsed=0:06:08.38    \nframe=  521 fps=1.4 q=40.0 size=       1KiB time=00:00:04.33 bitrate=   1.0kbits/s speed=0.0117x elapsed=0:06:08.97    \nframe=  521 fps=1.4 q=40.0 size=       1KiB time=00:00:04.33 bitrate=   1.0kbits/s speed=0.0117x elapsed=0:06:09.56    \nframe=  521 fps=1.4 q=40.0 size=       1KiB time=00:00:04.33 bitrate=   1.0kbits/s speed=0.0117x elapsed=0:06:10.14    \nframe=  523 fps=1.4 q=42.0 size=       1KiB time=00:00:04.35 bitrate=   1.0kbits/s speed=0.0117x elapsed=0:06:10.71    \nframe=  525 fps=1.4 q=43.0 size=       1KiB time=00:00:04.36 bitrate=   1.0kbits/s speed=0.0118x elapsed=0:06:11.27    \nframe=  525 fps=1.4 q=43.0 size=       1KiB time=00:00:04.36 bitrate=   1.0kbits/s speed=0.0117x elapsed=0:06:11.84    \nframe=  525 fps=1.4 q=43.0 size=       1KiB time=00:00:04.36 bitrate=   1.0kbits/s speed=0.0117x elapsed=0:06:12.41    \nframe=  527 fps=1.4 q=42.0 size=       1KiB time=00:00:04.38 bitrate=   1.0kbits/s speed=0.0118x elapsed=0:06:13.00    \nframe=  529 fps=1.4 q=30.0 size=       1KiB time=00:00:04.40 bitrate=   1.0kbits/s speed=0.0118x elapsed=0:06:13.58    \nframe=  531 fps=1.4 q=42.0 size=       1KiB time=00:00:04.40 bitrate=   1.0kbits/s speed=0.0118x elapsed=0:06:14.17    \nframe=  533 fps=1.4 q=43.0 size=       1KiB time=00:00:04.43 bitrate=   1.0kbits/s speed=0.0118x elapsed=0:06:14.74    \nframe=  533 fps=1.4 q=43.0 size=       1KiB time=00:00:04.43 bitrate=   1.0kbits/s speed=0.0118x elapsed=0:06:15.33    \nframe=  535 fps=1.4 q=42.0 size=       1KiB time=00:00:04.45 bitrate=   1.0kbits/s speed=0.0118x elapsed=0:06:15.89    \nframe=  537 fps=1.4 q=40.0 size=       1KiB time=00:00:04.45 bitrate=   1.0kbits/s speed=0.0118x elapsed=0:06:16.45    \nframe=  537 fps=1.4 q=40.0 size=       1KiB time=00:00:04.46 bitrate=   1.0kbits/s speed=0.0118x elapsed=0:06:17.01    \nframe=  537 fps=1.4 q=40.0 size=       1KiB time=00:00:04.46 bitrate=   1.0kbits/s speed=0.0118x elapsed=0:06:17.57    \nframe=  537 fps=1.4 q=40.0 size=       1KiB time=00:00:04.46 bitrate=   1.0kbits/s speed=0.0118x elapsed=0:06:18.13    \nframe=  539 fps=1.4 q=41.0 size=       1KiB time=00:00:04.48 bitrate=   1.0kbits/s speed=0.0118x elapsed=0:06:18.70    \nframe=  541 fps=1.4 q=42.0 size=       1KiB time=00:00:04.50 bitrate=   1.0kbits/s speed=0.0119x elapsed=0:06:19.27    \nframe=  541 fps=1.4 q=42.0 size=       1KiB time=00:00:04.50 bitrate=   1.0kbits/s speed=0.0118x elapsed=0:06:19.84    \nframe=  541 fps=1.4 q=42.0 size=       1KiB time=00:00:04.50 bitrate=   1.0kbits/s speed=0.0118x elapsed=0:06:20.42    \nframe=  543 fps=1.4 q=40.0 size=       1KiB time=00:00:04.51 bitrate=   1.0kbits/s speed=0.0119x elapsed=0:06:21.04    \nframe=  545 fps=1.4 q=29.0 size=       1KiB time=00:00:04.53 bitrate=   1.0kbits/s speed=0.0119x elapsed=0:06:21.63    \nframe=  545 fps=1.4 q=29.0 size=       1KiB time=00:00:04.53 bitrate=   1.0kbits/s speed=0.0119x elapsed=0:06:22.21    \nframe=  545 fps=1.4 q=29.0 size=       1KiB time=00:00:04.53 bitrate=   1.0kbits/s speed=0.0118x elapsed=0:06:22.79    \nframe=  547 fps=1.4 q=41.0 size=       1KiB time=00:00:04.55 bitrate=   1.0kbits/s speed=0.0119x elapsed=0:06:23.38    \nframe=  549 fps=1.4 q=42.0 size=       1KiB time=00:00:04.56 bitrate=   1.0kbits/s speed=0.0119x elapsed=0:06:23.97    \nframe=  549 fps=1.4 q=42.0 size=       1KiB time=00:00:04.56 bitrate=   1.0kbits/s speed=0.0119x elapsed=0:06:24.56    \nframe=  551 fps=1.4 q=41.0 size=       1KiB time=00:00:04.58 bitrate=   1.0kbits/s speed=0.0119x elapsed=0:06:25.15    \nframe=  551 fps=1.4 q=41.0 size=       1KiB time=00:00:04.58 bitrate=   1.0kbits/s speed=0.0119x elapsed=0:06:25.73    \nframe=  553 fps=1.4 q=40.0 size=       1KiB time=00:00:04.60 bitrate=   1.0kbits/s speed=0.0119x elapsed=0:06:26.29    \nframe=  553 fps=1.4 q=40.0 size=       1KiB time=00:00:04.60 bitrate=   1.0kbits/s speed=0.0119x elapsed=0:06:26.84    \nframe=  553 fps=1.4 q=40.0 size=       1KiB time=00:00:04.60 bitrate=   1.0kbits/s speed=0.0119x elapsed=0:06:27.43    \nframe=  553 fps=1.4 q=40.0 size=       1KiB time=00:00:04.60 bitrate=   1.0kbits/s speed=0.0119x elapsed=0:06:28.01    \nframe=  553 fps=1.4 q=40.0 size=       1KiB time=00:00:04.60 bitrate=   1.0kbits/s speed=0.0118x elapsed=0:06:28.57    \nframe=  553 fps=1.4 q=40.0 size=       1KiB time=00:00:04.60 bitrate=   1.0kbits/s speed=0.0118x elapsed=0:06:29.14    \nframe=  555 fps=1.4 q=41.0 size=       1KiB time=00:00:04.61 bitrate=   1.0kbits/s speed=0.0118x elapsed=0:06:29.72    \nframe=  557 fps=1.4 q=42.0 size=       1KiB time=00:00:04.63 bitrate=   1.0kbits/s speed=0.0119x elapsed=0:06:30.28    \nframe=  557 fps=1.4 q=42.0 size=       1KiB time=00:00:04.63 bitrate=   1.0kbits/s speed=0.0119x elapsed=0:06:30.85    \nframe=  559 fps=1.4 q=40.0 size=       1KiB time=00:00:04.65 bitrate=   1.0kbits/s speed=0.0119x elapsed=0:06:31.41    \nframe=  561 fps=1.4 q=29.0 size=       1KiB time=00:00:04.66 bitrate=   1.0kbits/s speed=0.0119x elapsed=0:06:31.98    \nframe=  561 fps=1.4 q=29.0 size=       1KiB time=00:00:04.66 bitrate=   1.0kbits/s speed=0.0119x elapsed=0:06:32.55    \nframe=  561 fps=1.4 q=29.0 size=       1KiB time=00:00:04.66 bitrate=   1.0kbits/s speed=0.0119x elapsed=0:06:33.10    \nframe=  563 fps=1.4 q=41.0 size=       1KiB time=00:00:04.66 bitrate=   1.0kbits/s speed=0.0119x elapsed=0:06:33.68    \nframe=  563 fps=1.4 q=41.0 size=       1KiB time=00:00:04.68 bitrate=   1.0kbits/s speed=0.0119x elapsed=0:06:34.25    \nframe=  563 fps=1.4 q=41.0 size=       1KiB time=00:00:04.68 bitrate=   1.0kbits/s speed=0.0119x elapsed=0:06:34.83    \nframe=  565 fps=1.4 q=42.0 size=       1KiB time=00:00:04.70 bitrate=   1.0kbits/s speed=0.0119x elapsed=0:06:35.40    \nframe=  565 fps=1.4 q=42.0 size=       1KiB time=00:00:04.70 bitrate=   1.0kbits/s speed=0.0119x elapsed=0:06:35.96    \nframe=  565 fps=1.4 q=42.0 size=       1KiB time=00:00:04.70 bitrate=   1.0kbits/s speed=0.0119x elapsed=0:06:36.51    \nframe=  565 fps=1.4 q=42.0 size=       1KiB time=00:00:04.70 bitrate=   1.0kbits/s speed=0.0118x elapsed=0:06:37.08    \nframe=  567 fps=1.4 q=33.0 size=       1KiB time=00:00:04.71 bitrate=   0.9kbits/s speed=0.0119x elapsed=0:06:37.65    \nframe=  569 fps=1.4 q=40.0 size=       1KiB time=00:00:04.73 bitrate=   0.9kbits/s speed=0.0119x elapsed=0:06:38.21    \nframe=  569 fps=1.4 q=40.0 size=       1KiB time=00:00:04.73 bitrate=   0.9kbits/s speed=0.0119x elapsed=0:06:38.78    \nframe=  569 fps=1.4 q=40.0 size=       1KiB time=00:00:04.73 bitrate=   0.9kbits/s speed=0.0119x elapsed=0:06:39.40    \nframe=  569 fps=1.4 q=40.0 size=       1KiB time=00:00:04.73 bitrate=   0.9kbits/s speed=0.0118x elapsed=0:06:39.99    \nframe=  569 fps=1.4 q=40.0 size=       1KiB time=00:00:04.73 bitrate=   0.9kbits/s speed=0.0118x elapsed=0:06:40.58    \nframe=  569 fps=1.4 q=40.0 size=       1KiB time=00:00:04.73 bitrate=   0.9kbits/s speed=0.0118x elapsed=0:06:41.16    \nframe=  573 fps=1.4 q=41.0 size=       1KiB time=00:00:04.76 bitrate=   0.9kbits/s speed=0.0119x elapsed=0:06:41.74    \nframe=  573 fps=1.4 q=41.0 size=       1KiB time=00:00:04.76 bitrate=   0.9kbits/s speed=0.0118x elapsed=0:06:42.31    \nframe=  573 fps=1.4 q=41.0 size=       1KiB time=00:00:04.76 bitrate=   0.9kbits/s speed=0.0118x elapsed=0:06:42.89    \nframe=  577 fps=1.4 q=29.0 size=       1KiB time=00:00:04.80 bitrate=   0.9kbits/s speed=0.0119x elapsed=0:06:43.46    \nframe=  577 fps=1.4 q=29.0 size=       1KiB time=00:00:04.80 bitrate=   0.9kbits/s speed=0.0119x elapsed=0:06:44.02    \nframe=  577 fps=1.4 q=29.0 size=       1KiB time=00:00:04.80 bitrate=   0.9kbits/s speed=0.0119x elapsed=0:06:44.61    \nframe=  579 fps=1.4 q=45.0 size=       1KiB time=00:00:04.81 bitrate=   0.9kbits/s speed=0.0119x elapsed=0:06:45.18    \nframe=  581 fps=1.4 q=46.0 size=       1KiB time=00:00:04.83 bitrate=   0.9kbits/s speed=0.0119x elapsed=0:06:45.76    \nframe=  581 fps=1.4 q=46.0 size=       1KiB time=00:00:04.83 bitrate=   0.9kbits/s speed=0.0119x elapsed=0:06:46.32    \nframe=  583 fps=1.4 q=45.0 size=       1KiB time=00:00:04.85 bitrate=   0.9kbits/s speed=0.0119x elapsed=0:06:46.87    \nframe=  585 fps=1.4 q=40.0 size=       1KiB time=00:00:04.86 bitrate=   0.9kbits/s speed=0.0119x elapsed=0:06:47.44    \nframe=  585 fps=1.4 q=40.0 size=       1KiB time=00:00:04.86 bitrate=   0.9kbits/s speed=0.0119x elapsed=0:06:48.01    \nframe=  585 fps=1.4 q=40.0 size=       1KiB time=00:00:04.86 bitrate=   0.9kbits/s speed=0.0119x elapsed=0:06:48.57    \nframe=  589 fps=1.4 q=46.0 size=       1KiB time=00:00:04.90 bitrate=   0.9kbits/s speed=0.012x elapsed=0:06:49.14    \nframe=  589 fps=1.4 q=46.0 size=       1KiB time=00:00:04.90 bitrate=   0.9kbits/s speed=0.012x elapsed=0:06:49.72    \nframe=  591 fps=1.4 q=45.0 size=       1KiB time=00:00:04.91 bitrate=   0.9kbits/s speed=0.012x elapsed=0:06:50.30    \n[out#0/matroska @ 000001cce38090c0] video:1526KiB audio:0KiB subtitle:0KiB other streams:0KiB global headers:0KiB muxing overhead: 0.213620%\nframe=  600 fps=1.5 q=47.0 Lsize=    1529KiB time=00:00:04.99 bitrate=2509.7kbits/s speed=0.0122x elapsed=0:06:50.68    \n",
  "seconds": 412.4013707637787,
  "probe_out": {}
}